<svg width="620" height="832" viewBox="0 0 620 832" fill="none" xmlns="http://www.w3.org/2000/svg">
<g clip-path="url(#clip0_687_892)">
<path d="M908.377 509.738C1111.71 369.512 1286 239.9 1286 -21L-5.99999 -21C3.26166 79.9334 -20.5147 245.487 379.2 509.738C455.82 560.391 640.631 720.358 640.631 955C653.261 840.845 679.541 667.552 908.377 509.738Z" fill="url(#paint0_linear_687_892)" fill-opacity="0.88"/>
<path d="M852.708 490.706C1013.87 355.508 1152 230.544 1152 -20.9999L128 -20.9999C135.341 76.3139 116.496 235.93 433.298 490.706C494.024 539.542 640.5 693.772 640.5 920C650.51 809.938 671.339 642.86 852.708 490.706Z" fill="url(#paint1_linear_687_892)" fill-opacity="0.7"/>
<path d="M794.669 492.793C912.232 357.308 1013 232.078 1013 -19.9999L266 -19.9999C271.355 77.5208 257.608 237.476 488.713 492.793C533.012 541.734 639.865 696.291 639.865 923C647.167 812.704 662.361 645.271 794.669 492.793Z" fill="url(#paint2_linear_687_892)" fill-opacity="0.56"/>
<path d="M740.214 492.793C813.868 357.308 877 232.078 877 -20.0001L409 -20.0001C412.355 77.5207 403.742 237.476 548.531 492.793C576.284 541.734 643.229 696.291 643.229 923C647.804 812.704 657.323 645.271 740.214 492.793Z" fill="url(#paint3_linear_687_892)" fill-opacity="0.8"/>
<path d="M696.423 492.793C737.657 357.308 773 232.078 773 -19.9999L511 -19.9999C512.878 77.5208 508.057 237.476 589.113 492.793C604.651 541.734 642.128 696.291 642.128 923C644.689 812.704 650.018 645.271 696.423 492.793Z" fill="url(#paint4_linear_687_892)"/>
<path d="M668.666 492.793C690.384 357.308 709 232.078 709 -20.0001L571 -20.0001C571.989 77.5207 569.45 237.476 612.144 492.793C620.327 541.734 640.067 696.291 640.067 923C641.416 812.704 644.223 645.271 668.666 492.793Z" fill="url(#paint5_linear_687_892)" fill-opacity="0.57"/>
<g style="mix-blend-mode:soft-light">
<path d="M907.67 510.476C1110.85 371.111 1285 242.296 1285 -17L-5.99999 -17C3.25449 83.3129 -20.5035 247.848 378.902 510.476C455.462 560.817 640.131 719.8 640.131 953C652.751 839.546 679.01 667.319 907.67 510.476Z" fill="url(#paint6_linear_687_892)"/>
</g>
</g>
<defs>
<linearGradient id="paint0_linear_687_892" x1="640" y1="17.5596" x2="640" y2="857.642" gradientUnits="userSpaceOnUse">
<stop stop-color="#FF1704"/>
<stop offset="0.65" stop-color="#FF9901"/>
</linearGradient>
<linearGradient id="paint1_linear_687_892" x1="640" y1="591.597" x2="640" y2="5.52489" gradientUnits="userSpaceOnUse">
<stop stop-color="#FF9901"/>
<stop offset="1" stop-color="#FF1704"/>
</linearGradient>
<linearGradient id="paint2_linear_687_892" x1="638.591" y1="451.5" x2="649.147" y2="5.01543" gradientUnits="userSpaceOnUse">
<stop stop-color="#CAE3C8"/>
<stop offset="1" stop-color="#72B1E8"/>
</linearGradient>
<linearGradient id="paint3_linear_687_892" x1="642.089" y1="451.5" x2="642.089" y2="17.2903" gradientUnits="userSpaceOnUse">
<stop stop-color="#CAE3C8"/>
<stop offset="0.423836" stop-color="#A5CED6"/>
<stop offset="1" stop-color="#72B1E8"/>
</linearGradient>
<linearGradient id="paint4_linear_687_892" x1="642" y1="412.934" x2="642" y2="-20" gradientUnits="userSpaceOnUse">
<stop stop-color="#D7EFD6"/>
<stop offset="1" stop-color="#72D2E8"/>
</linearGradient>
<linearGradient id="paint5_linear_687_892" x1="640.483" y1="603.043" x2="640.483" y2="23.313" gradientUnits="userSpaceOnUse">
<stop stop-color="#CAE3C8"/>
<stop offset="1" stop-color="#72B1E8"/>
</linearGradient>
<linearGradient id="paint6_linear_687_892" x1="639.136" y1="-1433.67" x2="639.136" y2="900.957" gradientUnits="userSpaceOnUse">
<stop offset="0.65402" stop-color="#626C3C"/>
<stop offset="0.766561" stop-color="#266B65"/>
<stop offset="0.938798" stop-color="#ABA9FC"/>
</linearGradient>
<clipPath id="clip0_687_892">
<rect width="620" height="832" fill="white"/>
</clipPath>
</defs>
</svg>
