<svg width="1581" height="225" viewBox="0 0 1581 225" fill="none" xmlns="http://www.w3.org/2000/svg">
<path d="M337.919 57.8411C321.748 57.8411 309.398 45.4923 309.398 29.3217C309.398 13.4445 321.748 0.801514 337.919 0.801514C354.09 0.801514 366.732 13.4445 366.732 29.3217C366.732 45.4923 354.09 57.8411 337.919 57.8411Z" fill="url(#paint0_linear_623_645)"/>
<path fill-rule="evenodd" clip-rule="evenodd" d="M294.493 207.434L294.485 207.333H278.89C268.306 208.215 267.508 198.677 267.508 180.448V119.88C267.508 86.6554 246.045 70.1907 204.294 70.1907C162.543 70.1907 136.081 93.4182 138.139 125.466H183.419V112.823C183.419 95.7699 188.417 88.1255 201.942 88.1255C214.29 88.1255 219.583 94.5941 219.583 109.883V130.465L194.003 137.521C147.548 150.164 132.847 162.218 132.847 185.152C132.847 194.129 135.108 201.81 139.05 207.982H92.4402L82.7789 206.909C73.0765 205.733 66.6079 201.323 66.6079 191.914V129.288C72.1943 118.115 81.3088 112.529 102.478 112.529H122.472V70.484C88.9533 67.5439 75.1344 82.8328 63.9615 116.352V69.3081H58.6693L0.159668 87.5371V98.4159L18.3887 108.707V191.914C18.3887 201.029 14.5664 204.851 8.39204 206.321L0.159668 208.085V222.492H93.3634V222.415H156.914C162.232 222.415 167.593 222.415 173.716 222.415C192.533 222.415 209.88 214.554 221.347 197.501C225.169 217.2 234.284 224.845 251.043 224.845C255.708 224.845 260.209 224.419 265.089 223.958H265.108C270.066 223.49 275.415 222.985 281.723 222.85L295.741 222.64L295.728 222.492H1580.15V208.086L466.468 206.321C460.588 204.851 456.472 201.029 456.472 191.914V8.15262H451.18L389.73 27.2641V38.1429L408.253 48.4332V191.914C408.253 201.029 404.431 204.851 398.256 206.321L384.668 207.901L373.789 206.321C367.614 204.851 363.498 201.028 363.498 191.913V69.3081H358.206L297.05 87.8313V98.4159L315.279 108.706V191.913C315.279 201.028 311.457 204.851 305.282 206.321L294.493 207.434ZM219.583 188.387C211.938 193.384 205.47 195.737 199.295 195.737C186.359 195.737 180.478 188.68 180.478 177.214C180.478 166.629 185.477 157.514 199.001 153.104L219.583 146.342V188.387Z" fill="url(#paint1_linear_623_645)"/>
<defs>
<linearGradient id="paint0_linear_623_645" x1="488.5" y1="112.823" x2="1580.15" y2="112.823" gradientUnits="userSpaceOnUse">
<stop stop-color="#FFFFF7"/>
<stop offset="0.65" stop-color="#C86604"/>
</linearGradient>
<linearGradient id="paint1_linear_623_645" x1="488.5" y1="112.823" x2="1580.15" y2="112.823" gradientUnits="userSpaceOnUse">
<stop stop-color="#FFFFF7"/>
<stop offset="0.65" stop-color="#C86604"/>
</linearGradient>
</defs>
</svg>
