<svg width="1605" height="5031" viewBox="0 0 1605 5031" fill="none" xmlns="http://www.w3.org/2000/svg">
<g clip-path="url(#clip0_661_663)" filter="url(#filter0_d_661_663)">
<g clip-path="url(#clip1_661_663)">
<path d="M410 585V585C305.066 585 220 670.066 220 775V992.571C220 1082.55 292.946 1155.5 382.929 1155.5V1155.5" stroke="#C86604" stroke-width="5"/>
<path d="M1196 585L1279 585C1338.09 585 1386 537.094 1386 478V478C1386 418.906 1338.09 371 1279 371L1223.07 371" stroke="#C86604" stroke-width="5"/>
<path d="M874.501 371L910.984 371C936.869 371 943.461 352.78 950.27 340C958.39 352.588 969.849 371 988.095 371L1108.28 371L1239 371" stroke="url(#paint0_linear_661_663)" stroke-width="5"/>
<path d="M394.5 585H1206" stroke="#C86604" stroke-width="5"/>
</g>
<g clip-path="url(#clip2_661_663)">
<path d="M800.001 3232.55V3072.98V3024.36C800.001 2937.04 870.785 2866.26 958.102 2866.26V2866.26H1219.56" stroke="url(#paint1_linear_661_663)" stroke-width="5"/>
<path d="M297.272 4035.36C-85.9673 4299.84 -414.458 4544.3 -414.458 5036.38L2020.66 5036.38C2003.2 4846.01 2048.01 4533.76 1294.64 4035.36C1150.24 3939.82 801.909 3638.11 801.909 3195.55C778.105 3410.86 728.574 3737.71 297.272 4035.36Z" fill="url(#paint2_linear_661_663)" fill-opacity="0.88"/>
<path d="M401.648 4070.82C97.4906 4325.93 -163.216 4561.73 -163.216 5036.37L1769.41 5036.37C1755.56 4852.75 1791.13 4551.56 1193.21 4070.82C1078.6 3978.67 802.154 3687.65 802.154 3260.77C783.263 3468.45 743.952 3783.72 401.648 4070.82Z" fill="url(#paint3_linear_661_663)" fill-opacity="0.7"/>
<path d="M511.753 4067.1C290.098 4322.55 100.108 4558.67 100.108 5033.96L1508.51 5033.96C1498.42 4850.09 1524.33 4548.49 1088.61 4067.1C1005.08 3974.82 803.621 3683.4 803.621 3255.94C789.854 3463.91 761.207 3779.6 511.753 4067.1Z" fill="url(#paint4_linear_661_663)" fill-opacity="0.56"/>
<path d="M613.896 4067.1C475.124 4322.55 356.177 4558.67 356.177 5033.96L1237.94 5033.96C1231.62 4850.09 1247.85 4548.49 975.048 4067.1C922.758 3974.82 796.627 3683.4 796.627 3255.94C788.008 3463.91 770.073 3779.6 613.896 4067.1Z" fill="url(#paint5_linear_661_663)" fill-opacity="0.8"/>
<path d="M696.606 4067.1C618.665 4322.55 551.859 4558.67 551.859 5033.97L1047.1 5033.97C1043.55 4850.09 1052.66 4548.5 899.445 4067.1C870.076 3974.82 799.235 3683.4 799.235 3255.95C794.394 3463.91 784.321 3779.6 696.606 4067.1Z" fill="url(#paint6_linear_661_663)"/>
<path d="M748.904 4067.1C707.843 4322.55 672.648 4558.67 672.648 5033.96L933.553 5033.96C931.682 4850.09 936.484 4548.49 855.766 4067.1C840.293 3974.82 802.973 3683.4 802.973 3255.94C800.422 3463.91 795.115 3779.6 748.904 4067.1Z" fill="url(#paint7_linear_661_663)" fill-opacity="0.57"/>
<g style="mix-blend-mode:soft-light">
<path d="M297.774 4033.72C-85.3535 4296.49 -413.748 4539.38 -413.748 5028.29L2020.66 5028.29C2003.21 4839.15 2048.01 4528.91 1294.86 4033.72C1150.49 3938.8 802.264 3639.03 802.264 3199.32C778.467 3413.24 728.951 3737.98 297.774 4033.72Z" fill="url(#paint8_linear_661_663)"/>
</g>
<path d="M1187 1155.55H1041.52L854.033 1155.55C828.149 1155.55 821.557 1173.77 814.748 1186.55C806.628 1173.96 795.168 1155.55 776.922 1155.55L656.738 1155.55L376 1155.55" stroke="url(#paint9_linear_661_663)" stroke-width="5"/>
<path d="M1185 1155.55H1205C1298.89 1155.55 1375 1231.66 1375 1325.55L1375 1563.12C1375 1653.11 1302.05 1726.05 1212.07 1726.05V1726.05" stroke="#C86604" stroke-width="5"/>
<path d="M410 1725.55H390C296.112 1725.55 220 1801.66 220 1895.55V2133.12C220 2223.11 292.946 2296.05 382.929 2296.05V2296.05" stroke="#C86604" stroke-width="5"/>
<path d="M1191 2295.8H1211C1304.89 2295.8 1381 2371.92 1381 2465.8V2703.37C1381 2793.36 1308.05 2866.3 1218.07 2866.3V2866.3" stroke="#C86604" stroke-width="5"/>
<path d="M1229.02 1725.55L964.033 1725.55C938.149 1725.55 931.557 1743.77 924.748 1756.55C916.628 1743.96 905.168 1725.55 886.922 1725.55L766.738 1725.55L376 1725.55" stroke="url(#paint10_linear_661_663)" stroke-width="5"/>
<path d="M1197.22 2295.97L684.073 2295.97C659.154 2295.97 652.808 2314.19 646.252 2326.97C638.435 2314.38 627.403 2295.97 609.837 2295.97L494.132 2295.97L376 2295.97" stroke="url(#paint11_linear_661_663)" stroke-width="5"/>
<path d="M410 585V585C305.066 585 220 670.066 220 775V992.571C220 1082.55 292.946 1155.5 382.929 1155.5V1155.5" stroke="#C86604" stroke-width="5"/>
<rect x="1320" y="1385.55" width="109.973" height="109.973" fill="black"/>
<rect x="165" y="1961.14" width="109.973" height="109.973" fill="black"/>
<rect x="1320" y="2526.07" width="109.973" height="109.973" fill="black"/>
<path d="M1376.4 2549.77V2568.69C1380.37 2566.22 1384.19 2562.97 1387.72 2559.09C1385.86 2553.01 1382.1 2546.9 1376.4 2549.77Z" fill="#FFFFF7"/>
<path d="M1381.19 2547.51C1385.29 2548.75 1387.75 2553.44 1389.14 2557.52C1391.7 2554.51 1394.09 2551.17 1396.22 2547.56C1391.49 2545.07 1386.21 2545.62 1381.19 2547.51Z" fill="#FFFFF7"/>
<path d="M1359.5 2594.87L1345.79 2602.78C1345.91 2609.62 1347.72 2616.66 1353.42 2620.52C1355.74 2616.56 1358.42 2612.82 1361.42 2609.41C1360.27 2605.27 1359.62 2600.28 1359.5 2594.87Z" fill="#FFFFF7"/>
<path d="M1345.83 2600.65L1359.47 2592.78C1359.49 2587.03 1360.11 2581.05 1361.26 2575.34C1358.67 2575.25 1356.25 2574.64 1354.06 2573.5C1349.02 2582.51 1346.14 2592.04 1345.83 2600.65Z" fill="#FFFFF7"/>
<path d="M1388.31 2561.18C1384.59 2565.12 1380.56 2568.4 1376.4 2570.84V2583.01L1389.91 2575.2C1389.86 2570.01 1389.32 2565.21 1388.31 2561.18Z" fill="#FFFFF7"/>
<path d="M1391.7 2574.17L1405.41 2566.26C1405.28 2558.04 1402.58 2551.8 1397.76 2548.5C1395.37 2552.53 1392.67 2556.24 1389.75 2559.55C1390.94 2563.75 1391.58 2568.66 1391.7 2574.17Z" fill="#FFFFF7"/>
<path d="M1391.44 2583.52C1393.56 2581.76 1395.94 2580.31 1398.57 2579.58C1400.22 2579.11 1402.07 2578.95 1403.73 2579.33C1404.72 2575.55 1405.26 2571.89 1405.38 2568.38L1391.73 2576.26C1391.73 2578.66 1391.6 2581.11 1391.38 2583.57C1391.4 2583.55 1391.42 2583.53 1391.44 2583.52Z" fill="#FFFFF7"/>
<path d="M1368.51 2555.38C1368.34 2555.53 1368.16 2555.67 1367.99 2555.83C1362.84 2560.42 1358.48 2565.93 1354.95 2571.95C1356.96 2572.98 1359.21 2573.5 1361.62 2573.54C1363.26 2566.24 1365.67 2559.96 1368.51 2555.38Z" fill="#FFFFF7"/>
<path d="M1376.4 2597.24C1378.59 2596.08 1380.76 2595.2 1382.88 2594.62C1384.68 2590.97 1387.22 2587.56 1389.4 2585.37C1389.7 2582.67 1389.84 2579.98 1389.88 2577.33L1376.4 2585.12V2597.24Z" fill="#FFFFF7"/>
<path d="M1363.52 2573.44C1366.96 2573.14 1370.69 2571.91 1374.57 2569.77V2550.95C1370.07 2554.59 1365.94 2562.98 1363.52 2573.44Z" fill="#FFFFF7"/>
<path d="M1401.18 2584.68C1403.24 2583.53 1405.23 2582.92 1406.75 2582.74L1405.11 2581.8C1403.61 2580.93 1401.75 2580.78 1400.04 2581.1C1393.49 2582.3 1387.41 2589.34 1384.34 2595.78L1384.34 2595.78C1382.25 2600.12 1381.43 2604.16 1381.43 2607.33C1381.45 2610.65 1382.41 2614.31 1385.26 2615.97L1387.03 2616.97C1386.36 2615.47 1385.88 2613.42 1385.87 2610.9C1385.85 2601.24 1392.76 2589.41 1401.18 2584.68Z" fill="#FFFFF7"/>
<path d="M1390.3 2544.06L1385.07 2541.02C1379.55 2537.81 1372.12 2538.57 1364.16 2543.16C1347.95 2552.53 1333.96 2575.67 1334 2595.39C1334.04 2604.4 1337.06 2611.11 1342.51 2614.29L1347.76 2617.34C1344.94 2613.01 1343.9 2607.39 1343.87 2602.18C1343.81 2582.43 1357.75 2558.29 1374.95 2548.38C1380.38 2545.24 1385.63 2543.77 1390.3 2544.06Z" fill="#FFFFF7"/>
<path d="M1381.87 2596.83C1380.08 2597.43 1378.24 2598.28 1376.4 2599.32V2618.19C1377.87 2617.06 1379.33 2615.44 1380.72 2613.3C1380.08 2611.81 1379.61 2609.66 1379.6 2607.33C1379.59 2604.44 1380.29 2600.66 1381.87 2596.83Z" fill="#FFFFF7"/>
<path d="M1401.87 2586.38C1394.07 2590.89 1387.68 2601.86 1387.7 2610.9C1387.71 2614.25 1388.68 2617.89 1391.55 2619.54C1394.04 2620.98 1397.41 2620.61 1401.05 2618.51C1408.88 2613.99 1415.22 2602.98 1415.2 2593.97C1415.17 2585.11 1409.08 2582.21 1401.87 2586.38ZM1402.35 2609.36V2611.86C1402.35 2612.36 1401.94 2612.77 1401.44 2612.77C1400.93 2612.77 1400.52 2612.36 1400.52 2611.86V2610.11C1400.42 2610.12 1400.31 2610.15 1400.21 2610.15C1399.79 2610.15 1399.38 2610.05 1399.03 2609.85C1398.22 2609.38 1397.76 2608.44 1397.75 2607.27C1397.75 2606.77 1398.16 2606.36 1398.66 2606.35H1398.67C1399.17 2606.35 1399.58 2606.76 1399.58 2607.26C1399.58 2607.76 1399.72 2608.14 1399.94 2608.26C1400.17 2608.4 1400.57 2608.32 1401.02 2608.07C1402.28 2607.34 1403.34 2605.5 1403.34 2604.05C1403.34 2603.54 1403.2 2603.17 1402.98 2603.04C1402.75 2602.9 1402.35 2602.98 1401.91 2603.23C1400.88 2603.83 1399.83 2603.9 1399.01 2603.43C1398.2 2602.97 1397.74 2602.02 1397.74 2600.85C1397.73 2598.93 1398.92 2596.71 1400.52 2595.54V2593.04C1400.52 2592.53 1400.93 2592.13 1401.44 2592.13C1401.94 2592.13 1402.35 2592.53 1402.35 2593.04V2594.76C1402.9 2594.69 1403.42 2594.77 1403.87 2595.03C1404.68 2595.49 1405.14 2596.44 1405.15 2597.62C1405.15 2598.12 1404.74 2598.53 1404.23 2598.53H1404.23C1403.73 2598.53 1403.32 2598.12 1403.32 2597.62C1403.32 2597.12 1403.18 2596.74 1402.96 2596.61C1402.73 2596.48 1402.33 2596.55 1401.89 2596.81C1400.63 2597.54 1399.56 2599.39 1399.56 2600.84C1399.56 2601.34 1399.7 2601.72 1399.92 2601.85C1400.15 2601.98 1400.55 2601.91 1401 2601.65C1402.02 2601.06 1403.07 2600.99 1403.89 2601.45C1404.7 2601.92 1405.16 2602.86 1405.17 2604.04C1405.17 2605.97 1403.96 2608.2 1402.35 2609.36Z" fill="#FFFFF7"/>
<path d="M1362.05 2611.5C1359.41 2614.6 1357.01 2617.95 1354.94 2621.51L1354.94 2621.51C1355.12 2621.54 1360.6 2624.99 1369.89 2621.53C1369.93 2621.51 1369.97 2621.49 1370.01 2621.48C1365.85 2620.22 1363.44 2615.6 1362.05 2611.5Z" fill="#FFFFF7"/>
<path d="M1361.32 2591.71L1374.57 2584.06V2571.86C1370.57 2573.95 1366.71 2575.11 1363.12 2575.32C1362.02 2580.68 1361.41 2586.29 1361.32 2591.71Z" fill="#FFFFF7"/>
<path d="M1363.45 2609.89C1365.22 2615.69 1368.84 2621.84 1374.38 2619.44C1374.4 2619.43 1374.42 2619.43 1374.44 2619.42C1374.48 2619.4 1374.52 2619.37 1374.57 2619.35V2600.44C1370.68 2602.89 1366.95 2606.05 1363.45 2609.89Z" fill="#FFFFF7"/>
<path d="M1362.91 2607.82C1366.58 2603.93 1370.49 2600.71 1374.57 2598.27V2586.17L1361.3 2593.83C1361.34 2599.02 1361.91 2603.78 1362.91 2607.82Z" fill="#FFFFF7"/>
<path d="M1367.71 1417.35L1359.29 1412.46C1360.24 1412.09 1342.57 1418.97 1342.17 1419.13C1341.9 1418.97 1350.23 1423.81 1350.6 1424.02L1367.71 1417.35Z" fill="#FFFFF7"/>
<path d="M1367.72 1419.79L1351.77 1426C1351.59 1424.88 1354.38 1442.58 1354.41 1442.81L1356.91 1438.5C1357.22 1437.96 1357.9 1437.78 1358.44 1438.08C1358.76 1438.25 1363.19 1440.67 1363.69 1440.94C1363.71 1440.9 1363.73 1440.86 1363.75 1440.81C1365.25 1436.28 1367.7 1432.22 1370.8 1428.86C1370.86 1428.79 1370.91 1428.72 1370.97 1428.66L1365.66 1425.63C1365.13 1425.33 1364.94 1424.68 1365.2 1424.14L1367.72 1419.79Z" fill="#FFFFF7"/>
<path d="M1383.58 1422.06C1384.51 1422.09 1385.23 1422.28 1385.46 1422.31L1393.45 1408.45C1393.68 1408.58 1384.7 1403.38 1384.47 1403.25L1371.27 1426.12L1372.7 1426.96C1375.62 1424.32 1379.68 1421.92 1383.58 1422.06Z" fill="#FFFFF7"/>
<path d="M1361.77 1442.58L1348.61 1465.37C1348.07 1465.06 1356.92 1470.09 1357.62 1470.49C1357.48 1470.72 1365.17 1457.41 1365.3 1457.18C1363.79 1455.2 1363 1454.08 1362.56 1451.07C1362.19 1448.54 1362.45 1445.78 1363.04 1443.3L1361.77 1442.58Z" fill="#FFFFF7"/>
<path d="M1408.62 1390.66L1399.82 1385.55L1381.99 1399.19C1381.51 1398.92 1390.57 1404.15 1390.82 1404.29C1389.66 1405.18 1408.39 1390.84 1408.62 1390.66Z" fill="#FFFFF7"/>
<path d="M1403.05 1444.31L1406.01 1439.19L1397.8 1434.41C1397.86 1435 1397.89 1435.6 1397.89 1436.22C1397.89 1437.72 1397.68 1439.54 1397.37 1441L1403.05 1444.31Z" fill="#FFFFF7"/>
<path d="M1409.19 1393.09C1410.27 1392.27 1393.18 1405.35 1392.95 1405.53L1395.57 1407.05C1396.09 1407.35 1396.29 1408.04 1395.98 1408.6L1387.58 1423.18C1387.35 1423.05 1393.05 1426.24 1393.94 1426.87L1402.39 1412.24C1402.7 1411.7 1403.39 1411.52 1403.93 1411.82L1406.59 1413.33L1409.19 1393.09Z" fill="#FFFFF7"/>
<path d="M1382.46 1427.41C1384.08 1426.47 1385.67 1425.86 1387.18 1425.57L1386.34 1425.09C1385.66 1424.7 1384.36 1424.38 1383.58 1424.35C1380.04 1424.17 1376.18 1426.72 1373.64 1429.17L1373.59 1429.22C1368.28 1434.35 1363.68 1443.55 1364.82 1450.86C1365.08 1452.61 1365.64 1453.91 1366.28 1454.81C1367.35 1456.34 1368.52 1456.71 1369.04 1457.06C1368.52 1455.6 1368.24 1453.91 1368.24 1452.03C1368.22 1442.99 1374.6 1431.95 1382.46 1427.41Z" fill="#FFFFF7"/>
<path d="M1382.86 1461.3L1390.64 1465.84C1390.47 1466.15 1393.26 1461.29 1393.6 1460.7L1388.04 1457.54C1387.07 1458.47 1384.81 1460.3 1382.86 1461.3Z" fill="#FFFFF7"/>
<path d="M1352.3 1443.97C1352.49 1445.17 1349.5 1426.21 1349.47 1425.98L1341.07 1421.1L1343.91 1439.09L1352.3 1443.97Z" fill="#FFFFF7"/>
<path d="M1390.27 1451.44C1393.33 1447.08 1395.63 1441.48 1395.63 1436.22C1395.63 1428.63 1390.51 1425.36 1383.59 1429.37C1376.35 1433.55 1370.48 1443.71 1370.5 1452.02C1370.55 1463.82 1382 1463.28 1390.27 1451.44ZM1384.18 1450.73V1452.92C1384.18 1453.55 1383.68 1454.05 1383.05 1454.05C1382.43 1454.05 1381.92 1453.55 1381.92 1452.92V1451.6L1381.91 1451.61C1381.46 1451.61 1381.04 1451.5 1380.66 1451.28C1379.82 1450.8 1379.34 1449.83 1379.33 1448.63C1379.33 1448.01 1379.84 1447.5 1380.46 1447.5H1380.47C1381.09 1447.5 1381.6 1448 1381.6 1448.63C1381.6 1449.05 1381.72 1449.27 1381.79 1449.32C1381.87 1449.37 1382.14 1449.36 1382.52 1449.14C1383.6 1448.51 1384.55 1446.87 1384.55 1445.62C1384.55 1445.19 1384.43 1444.97 1384.35 1444.92C1384.27 1444.87 1384.01 1444.89 1383.64 1445.1C1382.58 1445.71 1381.5 1445.78 1380.65 1445.29C1379.81 1444.8 1379.32 1443.84 1379.32 1442.63C1379.31 1440.81 1380.42 1438.7 1381.92 1437.53V1435.34C1381.92 1434.72 1382.43 1434.21 1383.05 1434.21C1383.68 1434.21 1384.18 1434.72 1384.18 1435.34V1436.65C1384.64 1436.65 1385.08 1436.74 1385.46 1436.96C1386.31 1437.44 1386.79 1438.41 1386.8 1439.62C1386.8 1440.24 1386.29 1440.75 1385.67 1440.75H1385.66C1385.04 1440.75 1384.53 1440.25 1384.53 1439.62C1384.53 1439.19 1384.41 1438.97 1384.33 1438.92C1384.25 1438.88 1384 1438.88 1383.62 1439.1C1382.53 1439.73 1381.58 1441.38 1381.58 1442.63C1381.58 1443.06 1381.7 1443.28 1381.78 1443.33C1381.86 1443.38 1382.12 1443.36 1382.5 1443.14C1383.55 1442.54 1384.63 1442.47 1385.48 1442.96C1386.32 1443.44 1386.81 1444.41 1386.81 1445.62C1386.82 1447.45 1385.7 1449.57 1384.18 1450.73Z" fill="#FFFFF7"/>
<path d="M1393.64 1465.16L1409.58 1458.95L1406.93 1442.11L1404.44 1446.43C1404.14 1446.94 1403.46 1447.16 1402.9 1446.84C1403.29 1447.07 1397.16 1443.58 1396.76 1443.35C1396.74 1443.42 1396.71 1443.49 1396.69 1443.56C1395.65 1446.9 1394.06 1450.03 1392.1 1452.81C1391.56 1453.57 1390.71 1454.71 1389.71 1455.83L1395.72 1459.3C1396.24 1459.6 1396.45 1460.29 1396.13 1460.85L1393.64 1465.16Z" fill="#FFFFF7"/>
<path d="M1343.84 1465.27L1341 1487.44L1349.8 1492.55C1349.97 1491.24 1352.61 1470.6 1352.64 1470.39L1343.84 1465.27Z" fill="#FFFFF7"/>
<path d="M1352.18 1491.85L1368.44 1479.39C1363.14 1476.32 1362.99 1476.25 1354.77 1471.61C1354.94 1470.26 1352.21 1491.61 1352.18 1491.85Z" fill="#FFFFF7"/>
<path d="M1359.57 1471.62L1365.98 1475.33L1373.54 1462.17C1372.99 1461.92 1371.39 1461 1367.11 1458.57L1359.57 1471.62Z" fill="#FFFFF7"/>
<path d="M228.899 1969.14L234.088 1972.13L228.942 1975.12L223.752 1972.13L228.899 1969.14ZM235.072 1973.86C235.07 1974.74 235.056 1980.47 235.056 1980.26C234.154 1980.79 229.636 1983.41 229.919 1983.25C229.92 1982.9 229.934 1976.55 229.933 1976.84L235.072 1973.86ZM222.763 1973.85L227.95 1976.84C227.949 1977.43 227.936 1983.66 227.937 1983.27L222.749 1980.26C222.749 1980.22 222.749 1980.2 222.749 1980.19C222.749 1980.02 222.752 1978.97 222.763 1973.85ZM221.258 1981.7C221.457 1981.82 228.886 1986.11 228.415 1985.83C228.417 1985.83 228.419 1985.83 228.421 1985.84L228.428 1985.84C228.725 1986.01 229.098 1986.02 229.42 1985.84C229.42 1985.84 229.421 1985.84 229.421 1985.84L235.169 1982.5C240.412 1984.37 247.764 1988.49 247.764 1993.98C247.764 1993.98 247.764 1993.98 247.764 1993.98C247.781 1996.08 246.494 1998.36 244.15 2000.45C243.396 1999.87 242.571 1999.3 241.62 1998.75C236.25 1995.63 229.061 1993.81 221.299 1993.56C221.302 1992.24 221.313 1987.59 221.313 1987.89C221.313 1987.69 221.18 1987.24 220.817 1987.03L213.649 1982.89C213.341 1982.72 212.96 1982.72 212.656 1982.89L205.535 1987.03C205.336 1987.15 205.041 1987.59 205.041 1987.89L205.022 1995.57C202.245 1996.42 199.743 1997.47 197.606 1998.73C196.685 1999.27 195.913 1999.81 195.204 2000.35C192.876 1998.27 191.59 1995.99 191.59 1993.86C191.59 1990.79 194.147 1987.55 198.608 1984.98C205.045 1981.23 213.325 1979.84 220.765 1980.02L220.763 1980.84C220.763 1981.19 220.951 1981.52 221.258 1981.7ZM213.199 1990.88L208.009 1987.89L213.156 1984.9L218.345 1987.89C217.977 1988.11 212.952 1991.03 213.199 1990.88ZM219.327 1989.61L219.311 1996.02L214.174 1999.01L214.19 1992.6L219.327 1989.61ZM212.207 1992.6L212.192 1999.02L207.004 1996.02L207.019 1989.6L212.207 1992.6ZM212.683 2001.6C212.989 2001.77 213.365 2001.77 213.672 2001.6C213.672 2001.6 213.673 2001.6 213.672 2001.6C214.237 2001.27 220.397 1997.69 220.798 1997.46C220.8 1997.46 220.801 1997.45 220.803 1997.45L220.807 1997.45C221.113 1997.27 221.301 1996.94 221.301 1996.59V1995.53C228.717 1995.77 235.546 1997.51 240.627 2000.46C241.332 2000.87 241.977 2001.29 242.561 2001.71C242.515 2001.74 242.476 2001.77 242.43 2001.8C241.909 2002.17 241.355 2002.53 240.747 2002.89C235.219 2006.09 227.778 2007.85 219.795 2007.85C212.138 2007.85 203.256 2006.16 196.968 2001.74C196.91 2001.7 196.856 2001.65 196.798 2001.61C199.399 1999.75 202.463 1998.41 205.536 1997.47L212.683 2001.6ZM238.581 2015.03C238.428 2015.24 229.963 2026.45 230.116 2026.24C228.794 2027.99 228.059 2030.16 228.043 2032.35L228.008 2037.66C228.008 2038.62 227.302 2039.56 226.026 2040.31C222.929 2042.09 217.888 2042.09 214.799 2040.31C213.481 2039.54 212.755 2038.58 212.755 2037.61L212.788 2032.78C212.803 2030.42 211.996 2028.11 210.517 2026.28L196.855 2009.34C203.481 2012.76 212.108 2014.4 219.793 2014.4C227.449 2014.4 236.191 2012.81 243.022 2009.15L238.581 2015.03ZM243.063 2006.85C228.394 2015.4 204.062 2013.76 192.79 2004.33C188.758 2001.03 186.712 1997.01 187.033 1993.03C187.395 1988.53 190.682 1984.27 196.289 1981.02C203.332 1976.92 212.567 1975.24 220.776 1975.41L220.77 1978.04C220.365 1978.03 219.961 1978.02 219.557 1978.02C211.216 1978.02 203.423 1979.88 197.614 1983.26C192.526 1986.2 189.607 1990.06 189.607 1993.86C189.607 1996.81 191.309 1999.76 194.536 2002.4C201.168 2007.74 211.136 2009.83 219.795 2009.83C228.121 2009.83 235.914 2007.98 241.746 2004.6C245.696 2002.27 249.78 1998.55 249.747 1993.97C249.744 1987.91 243.037 1983.48 236.97 1981.1C236.995 1981.01 237.04 1980.93 237.04 1980.83C237.041 1980.63 237.043 1978.11 237.043 1978.31C243.917 1980.79 251.699 1985.83 252.321 1993.1C252.826 1999 248.15 2003.92 243.063 2006.85Z" fill="#FFFFF7"/>
<path d="M219.745 2063.14C220.293 2063.14 220.736 2062.69 220.736 2062.15V2060.08C222.14 2059.02 223.182 2057.06 223.179 2055.36C223.175 2053.06 221.259 2051.96 219.267 2053.12C218.622 2053.49 218.324 2053.39 218.32 2052.59C218.316 2051.41 219.212 2049.85 220.24 2049.26C220.867 2048.9 221.177 2048.98 221.181 2049.8C221.183 2050.34 221.626 2050.78 222.172 2050.78C222.72 2050.78 223.165 2050.34 223.163 2049.79C223.161 2048.25 222.26 2047.04 220.736 2047.09V2045.82C220.736 2045.27 220.293 2044.83 219.745 2044.83C219.197 2044.83 218.754 2045.27 218.754 2045.82V2047.89C217.36 2048.96 216.331 2050.9 216.338 2052.59C216.342 2054.89 218.25 2055.99 220.258 2054.83C220.889 2054.47 221.193 2054.56 221.197 2055.37C221.2 2056.54 220.304 2058.09 219.282 2058.68C218.633 2059.06 218.339 2058.95 218.336 2058.16C218.334 2057.62 217.89 2057.17 217.345 2057.17C216.797 2057.17 216.351 2057.62 216.353 2058.17C216.356 2059.69 217.236 2060.89 218.754 2060.86V2062.15C218.754 2062.69 219.197 2063.14 219.745 2063.14Z" fill="#FFFFF7"/>
<rect x="165" y="793" width="109.973" height="109.973" fill="black"/>
<path d="M189.621 861.453C190.052 861.206 190.48 861 190.9 860.835L188.606 859.502L197.548 831.754L198.887 832.528C198.828 832.102 198.796 831.652 198.796 831.182C198.796 826.285 202.129 820.508 206.381 818.03C206.822 817.781 207.256 817.575 207.685 817.409L203.044 814.715C201.901 814.057 200.369 814.537 199.221 815.21C195.709 817.222 192.767 822.309 192.788 826.323C192.788 828.046 193.306 829.295 194.248 829.846L195.489 830.564L186.549 858.306L186.259 858.137C185.103 857.473 183.585 857.967 182.427 858.636C178.942 860.645 176 865.735 176 869.752C176.02 871.469 176.547 872.723 177.486 873.271L182.127 875.974C181.967 874.885 182.006 873.93 182.164 872.871C182.803 868.413 185.838 863.645 189.621 861.453Z" fill="#FFFFF7"/>
<path d="M234.721 811.784C234.721 815.247 236.874 816.623 240.039 814.791C240.816 814.342 241.552 813.734 242.242 813.044L248.131 820.966C245.386 823.404 243.298 827.523 243.317 830.891C243.317 832.615 243.835 833.865 244.777 834.416L249.416 837.111C249.355 836.68 249.323 836.226 249.323 835.751C249.323 830.857 252.656 825.08 256.91 822.6C257.349 822.352 257.785 822.144 258.214 821.978L253.573 819.284C252.529 818.664 251.143 819.042 250.03 819.62L243.785 811.221C245.408 808.936 246.472 806.138 246.465 803.665C246.456 800.133 244.237 798.865 241.156 800.651C237.578 802.717 234.701 807.899 234.721 811.784Z" fill="#FFFFF7"/>
<path d="M206.576 885.035C207.01 884.785 207.44 884.576 207.864 884.409L203.237 881.721C202.104 881.049 200.555 881.537 199.405 882.197C198.68 882.617 197.991 883.191 197.336 883.836L191.65 876.082C194.223 873.622 196.095 869.776 196.086 866.49C196.076 862.913 193.869 861.897 191.09 863.325C187.519 865.185 184.338 870.438 184.359 874.6C184.359 878.173 186.552 879.428 189.659 877.632C189.714 877.601 189.765 877.554 189.819 877.521L195.772 885.639C194.088 887.966 192.966 890.855 192.978 893.33C192.978 895.038 193.496 896.278 194.439 896.829L199.078 899.523C199.019 899.1 198.987 898.654 198.987 898.189C198.987 893.272 202.579 887.342 206.576 885.035Z" fill="#FFFFF7"/>
<path d="M258.075 824.617C254.515 826.673 251.637 831.939 251.648 835.743C251.652 837.232 252.047 838.28 252.704 838.907L237.253 862.574L236.83 862.329C235.688 861.649 234.156 862.125 233.007 862.799C229.504 864.828 226.548 869.929 226.548 873.943C226.56 875.072 226.817 875.975 227.25 876.632L212.933 888.762C212.433 886.24 210.425 885.502 207.737 887.052C204.175 889.109 201.301 894.253 201.313 898.176C201.322 901.85 203.622 902.924 206.619 901.192C209.674 899.429 212.217 895.51 212.878 891.856L229.139 878.081L232.671 880.139C232.614 879.73 232.586 879.299 232.583 878.85C232.583 878.829 232.577 878.811 232.577 878.79C232.562 873.981 235.822 868.09 240.299 865.58C240.69 865.361 241.081 865.165 241.464 865.014L239.27 863.743L255.105 839.487C255.678 839.376 256.293 839.157 256.957 838.775C260.521 836.717 263.408 831.715 263.397 827.624C263.387 823.977 261.084 822.887 258.075 824.617Z" fill="#FFFFF7"/>
<path d="M201.127 831.177C201.137 834.816 203.418 835.931 206.436 834.193C209.985 832.143 212.864 827.177 212.872 823.102L231.333 812.46L232.49 813.133C231.755 808.027 235.321 801.339 239.984 798.637C240.415 798.388 240.845 798.179 241.267 798.013L236.644 795.321C235.515 794.65 233.961 795.139 232.812 795.798C229.318 797.821 226.365 802.923 226.365 806.936C226.383 808.629 226.919 809.904 227.835 810.423L229.016 811.111L212.395 820.692C211.543 819 209.651 818.841 207.554 820.053C203.929 822.144 201.116 827.404 201.127 831.177Z" fill="#FFFFF7"/>
<path d="M241.337 867.657C237.977 869.582 234.887 874.749 234.908 878.791C234.908 882.362 237.136 883.578 240.229 881.789C243.722 879.771 246.664 874.677 246.653 870.664C246.643 867.001 244.312 865.932 241.337 867.657Z" fill="#FFFFF7"/>
<path d="M223.4 834.346L223.403 834.345C224.544 833.687 225.959 833.121 226.894 832.886L225.967 832.368C223.775 831.097 221.041 831.892 218.837 833.167C212.737 836.69 207.785 845.254 207.801 852.259C207.814 855.385 208.819 857.688 210.627 858.742L211.754 859.372C211.414 858.27 211.206 856.6 211.201 855.459C211.186 847.841 216.718 838.205 223.4 834.346Z" fill="#FFFFF7"/>
<path d="M223.481 861.121C229.578 857.601 234.523 849.028 234.503 842.012C234.483 835.291 229.971 833.256 224.596 836.346C224.587 836.351 224.578 836.355 224.569 836.36C218.482 839.874 213.515 848.425 213.535 855.452C213.554 861.968 217.848 864.365 223.481 861.121ZM222.844 843.089V841.267C222.844 840.624 223.365 840.104 224.008 840.104C224.65 840.104 225.171 840.624 225.171 841.267V842.197C225.519 842.221 225.856 842.295 226.157 842.467C226.938 842.917 227.388 843.804 227.392 844.903C227.395 845.544 226.874 846.067 226.234 846.069H226.229C225.589 846.069 225.068 845.551 225.066 844.909C225.066 844.631 225 844.496 224.978 844.47C224.984 844.487 224.834 844.498 224.589 844.64C223.717 845.143 222.956 846.462 222.958 847.463C222.958 847.741 223.022 847.876 223.044 847.901C223.038 847.884 223.192 847.873 223.44 847.73C224.389 847.179 225.389 847.121 226.172 847.573C226.954 848.023 227.404 848.909 227.408 850.006C227.41 851.613 226.468 853.36 225.171 854.4V856.218C225.171 856.861 224.65 857.381 224.008 857.381C223.365 857.381 222.844 856.861 222.844 856.218V855.278C222.502 855.251 222.174 855.169 221.879 854.999C221.098 854.55 220.65 853.667 220.646 852.574C220.643 851.931 221.186 851.465 221.809 851.407C222.449 851.407 222.969 851.925 222.972 852.567C222.972 852.84 223.035 852.973 223.058 852.998C223.051 852.982 223.206 852.97 223.456 852.826C224.323 852.325 225.084 851.009 225.082 850.012C225.082 849.734 225.016 849.6 224.993 849.575C224.998 849.59 224.848 849.602 224.603 849.743C223.644 850.294 222.647 850.35 221.865 849.902C221.084 849.453 220.634 848.566 220.632 847.468C220.626 845.871 221.557 844.134 222.844 843.089Z" fill="#FFFFF7"/>
</g>
</g>
<defs>
<filter id="filter0_d_661_663" x="0.319573" y="0.513981" width="1604.36" height="5030.36" filterUnits="userSpaceOnUse" color-interpolation-filters="sRGB">
<feFlood flood-opacity="0" result="BackgroundImageFix"/>
<feColorMatrix in="SourceAlpha" type="matrix" values="0 0 0 0 0 0 0 0 0 0 0 0 0 0 0 0 0 0 127 0" result="hardAlpha"/>
<feOffset dy="4.19441"/>
<feGaussianBlur stdDeviation="7.34021"/>
<feComposite in2="hardAlpha" operator="out"/>
<feColorMatrix type="matrix" values="0 0 0 0 0 0 0 0 0 0 0 0 0 0 0 0 0 0 0.25 0"/>
<feBlend mode="normal" in2="BackgroundImageFix" result="effect1_dropShadow_661_663"/>
<feBlend mode="normal" in="SourceGraphic" in2="effect1_dropShadow_661_663" result="shape"/>
</filter>
<linearGradient id="paint0_linear_661_663" x1="1787.09" y1="355.649" x2="1532.81" y2="355.5" gradientUnits="userSpaceOnUse">
<stop stop-color="#CAE3C8"/>
<stop offset="1" stop-color="#C86604"/>
</linearGradient>
<linearGradient id="paint1_linear_661_663" x1="1527.24" y1="2904.25" x2="1272.81" y2="2904.31" gradientUnits="userSpaceOnUse">
<stop stop-color="#CAE3C8"/>
<stop offset="1" stop-color="#C86604"/>
</linearGradient>
<linearGradient id="paint2_linear_661_663" x1="803.1" y1="4963.65" x2="803.1" y2="3379.18" gradientUnits="userSpaceOnUse">
<stop stop-color="#FF1704"/>
<stop offset="0.65" stop-color="#FF9901"/>
</linearGradient>
<linearGradient id="paint3_linear_661_663" x1="803.099" y1="3880.44" x2="803.099" y2="4986.32" gradientUnits="userSpaceOnUse">
<stop stop-color="#FF9901"/>
<stop offset="1" stop-color="#FF1704"/>
</linearGradient>
<linearGradient id="paint4_linear_661_663" x1="806.023" y1="4144.95" x2="786.119" y2="4986.8" gradientUnits="userSpaceOnUse">
<stop stop-color="#CAE3C8"/>
<stop offset="1" stop-color="#72B1E8"/>
</linearGradient>
<linearGradient id="paint5_linear_661_663" x1="798.774" y1="4144.95" x2="798.774" y2="4963.65" gradientUnits="userSpaceOnUse">
<stop stop-color="#CAE3C8"/>
<stop offset="0.423836" stop-color="#A5CED6"/>
<stop offset="1" stop-color="#72B1E8"/>
</linearGradient>
<linearGradient id="paint6_linear_661_663" x1="799.478" y1="4217.67" x2="799.478" y2="5033.97" gradientUnits="userSpaceOnUse">
<stop stop-color="#D7EFD6"/>
<stop offset="1" stop-color="#72D2E8"/>
</linearGradient>
<linearGradient id="paint7_linear_661_663" x1="802.188" y1="3859.22" x2="802.188" y2="4952.3" gradientUnits="userSpaceOnUse">
<stop stop-color="#CAE3C8"/>
<stop offset="1" stop-color="#72B1E8"/>
</linearGradient>
<linearGradient id="paint8_linear_661_663" x1="804.14" y1="7699.47" x2="804.14" y2="3297.45" gradientUnits="userSpaceOnUse">
<stop offset="0.65402" stop-color="#626C3C"/>
<stop offset="0.766561" stop-color="#266B65"/>
<stop offset="0.938798" stop-color="#ABA9FC"/>
</linearGradient>
<linearGradient id="paint9_linear_661_663" x1="87.9236" y1="1170.9" x2="342.209" y2="1171.05" gradientUnits="userSpaceOnUse">
<stop stop-color="#CAE3C8"/>
<stop offset="1" stop-color="#C86604"/>
</linearGradient>
<linearGradient id="paint10_linear_661_663" x1="87.9235" y1="1740.9" x2="342.209" y2="1741.05" gradientUnits="userSpaceOnUse">
<stop stop-color="#CAE3C8"/>
<stop offset="1" stop-color="#C86604"/>
</linearGradient>
<linearGradient id="paint11_linear_661_663" x1="98.6603" y1="2311.32" x2="343.469" y2="2311.46" gradientUnits="userSpaceOnUse">
<stop stop-color="#CAE3C8"/>
<stop offset="1" stop-color="#C86604"/>
</linearGradient>
<clipPath id="clip0_661_663">
<rect width="1575" height="5001" fill="white" transform="translate(15 11)"/>
</clipPath>
<clipPath id="clip1_661_663">
<rect width="1575" height="716" fill="white" transform="translate(15 11)"/>
</clipPath>
<clipPath id="clip2_661_663">
<rect width="1575" height="4285" fill="white" transform="translate(15 727)"/>
</clipPath>
</defs>
</svg>
