<svg width="1575" height="343" viewBox="0 0 1575 343" fill="none" xmlns="http://www.w3.org/2000/svg">
<g clip-path="url(#clip0_611_569)">
<path d="M717.324 485.621C949.216 594.056 1163.55 687 1595 687V-2C1428.09 2.93907 1154.31 -9.74042 717.324 203.42C633.56 244.28 369.025 342.837 -19 342.837C169.777 349.572 456.35 363.586 717.324 485.621Z" fill="url(#paint0_linear_611_569)" fill-opacity="0.88"/>
<path d="M748.419 456.088C972.094 542.147 1178.84 615.912 1595 615.912V69.0869C1434 73.0068 1169.93 62.9437 748.419 232.119C667.623 264.547 412.462 342.767 38.1851 342.767C220.274 348.112 496.692 359.235 748.419 456.088Z" fill="url(#paint1_linear_611_569)" fill-opacity="0.7"/>
<path d="M745.153 424.935C969.132 487.651 1176.16 541.407 1592.88 541.407V142.908C1431.67 145.765 1167.23 138.431 745.153 261.718C664.247 285.35 408.738 342.352 33.9526 342.352C216.289 346.248 493.084 354.353 745.153 424.935Z" fill="url(#paint2_linear_611_569)" fill-opacity="0.56"/>
<path d="M745.153 396.033C969.132 435.298 1176.16 468.953 1592.88 468.953V219.464C1431.67 221.252 1167.23 216.661 745.153 293.847C664.247 308.643 408.738 344.33 33.9526 344.33C216.289 346.769 493.084 351.844 745.153 396.033Z" fill="url(#paint3_linear_611_569)" fill-opacity="0.8"/>
<path d="M745.153 372.632C969.132 394.685 1176.16 413.587 1592.88 413.587V273.463C1431.67 274.467 1167.23 271.889 745.153 315.24C664.247 323.55 408.738 343.593 33.9526 343.593C216.289 344.963 493.084 347.813 745.153 372.632Z" fill="url(#paint4_linear_611_569)"/>
<path d="M745.153 357.834C969.132 369.452 1176.16 379.41 1592.88 379.41V305.589C1431.67 306.118 1167.23 304.76 745.153 327.598C664.247 331.976 408.738 342.536 33.9526 342.536C216.289 343.257 493.084 344.759 745.153 357.834Z" fill="url(#paint5_linear_611_569)" fill-opacity="0.57"/>
<g style="mix-blend-mode:soft-light">
<path d="M715.885 485.479C946.283 593.882 1159.24 686.799 1587.91 686.799V-2C1422.07 2.93763 1150.06 -9.73817 715.885 203.361C632.661 244.208 369.831 342.736 -15.6948 342.736C171.866 349.469 456.593 363.48 715.885 485.479Z" fill="url(#paint6_linear_611_569)"/>
</g>
</g>
<defs>
<linearGradient id="paint0_linear_611_569" x1="1531.24" y1="342.5" x2="142.001" y2="342.5" gradientUnits="userSpaceOnUse">
<stop stop-color="#FF1704"/>
<stop offset="0.65" stop-color="#FF9901"/>
</linearGradient>
<linearGradient id="paint1_linear_611_569" x1="581.502" y1="342.5" x2="1551.11" y2="342.5" gradientUnits="userSpaceOnUse">
<stop stop-color="#FF9901"/>
<stop offset="1" stop-color="#FF1704"/>
</linearGradient>
<linearGradient id="paint2_linear_611_569" x1="813.418" y1="341.673" x2="1548" y2="395.494" gradientUnits="userSpaceOnUse">
<stop stop-color="#CAE3C8"/>
<stop offset="1" stop-color="#72B1E8"/>
</linearGradient>
<linearGradient id="paint3_linear_611_569" x1="813.418" y1="343.723" x2="1531.24" y2="343.723" gradientUnits="userSpaceOnUse">
<stop stop-color="#CAE3C8"/>
<stop offset="0.423836" stop-color="#A5CED6"/>
<stop offset="1" stop-color="#72B1E8"/>
</linearGradient>
<linearGradient id="paint4_linear_611_569" x1="877.173" y1="343.525" x2="1592.88" y2="343.525" gradientUnits="userSpaceOnUse">
<stop stop-color="#D7EFD6"/>
<stop offset="1" stop-color="#72D2E8"/>
</linearGradient>
<linearGradient id="paint5_linear_611_569" x1="562.894" y1="342.758" x2="1521.28" y2="342.758" gradientUnits="userSpaceOnUse">
<stop stop-color="#CAE3C8"/>
<stop offset="1" stop-color="#72B1E8"/>
</linearGradient>
<linearGradient id="paint6_linear_611_569" x1="3929.94" y1="342.206" x2="70.3425" y2="342.205" gradientUnits="userSpaceOnUse">
<stop offset="0.65402" stop-color="#626C3C"/>
<stop offset="0.766561" stop-color="#266B65"/>
<stop offset="0.938798" stop-color="#ABA9FC"/>
</linearGradient>
<clipPath id="clip0_611_569">
<rect width="1575" height="343" fill="white"/>
</clipPath>
</defs>
</svg>
