<svg width="1575" height="861" viewBox="0 0 1575 861" fill="none" xmlns="http://www.w3.org/2000/svg">
<g clip-path="url(#clip0_687_561)">
<path d="M1281.9 667.148C1060.11 789.702 870.002 902.98 870.002 1131L2279.28 1131C2269.17 1042.79 2295.11 898.097 1859.11 667.148C1775.54 622.878 1573.95 483.071 1573.95 278C1560.17 377.769 1531.51 529.223 1281.9 667.148Z" fill="url(#paint0_linear_687_561)" fill-opacity="0.88"/>
<path d="M1342.31 683.58C1166.28 801.792 1015.4 911.056 1015.4 1131L2133.87 1131C2125.86 1045.91 2146.44 906.347 1800.41 683.58C1734.08 640.879 1574.09 506.026 1574.09 308.221C1563.16 404.455 1540.41 550.542 1342.31 683.58Z" fill="url(#paint1_linear_687_561)" fill-opacity="0.7"/>
<path d="M1406.03 681.854C1277.75 800.227 1167.79 909.639 1167.79 1129.88L1982.88 1129.88C1977.04 1044.68 1992.04 904.923 1739.87 681.854C1691.53 639.095 1574.94 504.059 1574.94 305.984C1566.97 402.349 1550.39 548.635 1406.03 681.854Z" fill="url(#paint2_linear_687_561)" fill-opacity="0.56"/>
<path d="M1465.12 681.86C1384.81 800.233 1315.97 909.645 1315.97 1129.88L1826.27 1129.89C1822.61 1044.68 1832.01 904.929 1674.13 681.86C1643.87 639.101 1570.87 504.064 1570.87 305.99C1565.88 402.355 1555.5 548.641 1465.12 681.86Z" fill="url(#paint3_linear_687_561)" fill-opacity="0.8"/>
<path d="M1512.98 681.861C1467.88 800.234 1429.21 909.646 1429.21 1129.89L1715.82 1129.89C1713.77 1044.68 1719.04 904.93 1630.37 681.861C1613.38 639.102 1572.38 504.065 1572.38 305.991C1569.58 402.356 1563.75 548.642 1512.98 681.861Z" fill="url(#paint4_linear_687_561)"/>
<path d="M1543.25 681.86C1519.49 800.233 1499.12 909.645 1499.12 1129.88L1650.11 1129.89C1649.03 1044.68 1651.81 904.929 1605.09 681.86C1596.14 639.101 1574.54 504.064 1574.54 305.99C1573.07 402.355 1569.99 548.641 1543.25 681.86Z" fill="url(#paint5_linear_687_561)" fill-opacity="0.57"/>
<g style="mix-blend-mode:soft-light">
<path d="M1282.19 666.387C1060.46 788.152 870.412 900.7 870.411 1127.25L2279.27 1127.25C2269.18 1039.61 2295.1 895.849 1859.23 666.387C1775.68 622.403 1574.15 483.497 1574.15 279.747C1560.38 378.873 1531.73 529.351 1282.19 666.387Z" fill="url(#paint6_linear_687_561)"/>
</g>
<path d="M292.373 160.853C514.165 38.298 704.272 -74.9796 704.272 -303L-705.001 -303C-694.899 -214.786 -720.834 -70.097 -284.837 160.853C-201.263 205.122 0.324164 344.929 0.324158 550C14.1 450.231 42.7651 298.777 292.373 160.853Z" fill="url(#paint7_linear_687_561)" fill-opacity="0.88"/>
<path d="M231.967 144.42C407.993 26.2079 558.871 -83.0559 558.872 -302.997L-559.6 -302.997C-551.582 -217.909 -572.165 -78.3463 -226.136 144.42C-159.807 187.121 0.182629 321.974 0.182617 519.779C11.1159 423.545 33.8659 277.458 231.967 144.42Z" fill="url(#paint8_linear_687_561)" fill-opacity="0.7"/>
<path d="M168.248 146.146C296.527 27.773 406.48 -81.6395 406.48 -301.879L-408.606 -301.879C-402.763 -216.676 -417.763 -76.9235 -165.594 146.146C-117.257 188.905 -0.664692 323.941 -0.664703 522.016C7.30289 425.651 23.882 279.365 168.248 146.146Z" fill="url(#paint9_linear_687_561)" fill-opacity="0.56"/>
<path d="M109.188 146.132C189.499 27.7591 258.338 -81.6534 258.338 -301.893L-251.965 -301.893C-248.307 -216.69 -257.698 -76.9374 -99.8219 146.132C-69.5596 188.891 3.4358 323.927 3.43579 522.002C8.42408 425.637 18.8038 279.351 109.188 146.132Z" fill="url(#paint10_linear_687_561)" fill-opacity="0.8"/>
<path d="M61.3239 146.131C106.43 27.7581 145.093 -81.6544 145.093 -301.894L-141.515 -301.894C-139.461 -216.691 -144.735 -76.9384 -56.065 146.131C-39.0683 188.89 1.92904 323.926 1.92903 522.001C4.73069 425.636 10.5604 279.35 61.3239 146.131Z" fill="url(#paint11_linear_687_561)"/>
<path d="M31.0564 146.132C54.8198 27.759 75.1884 -81.6534 75.1884 -301.893L-75.8051 -301.893C-74.7227 -216.69 -77.5014 -76.9374 -30.7875 146.132C-21.8332 188.891 -0.234577 323.927 -0.234589 522.002C1.2414 425.637 4.31267 279.351 31.0564 146.132Z" fill="url(#paint12_linear_687_561)" fill-opacity="0.57"/>
<g style="mix-blend-mode:soft-light">
<path d="M292.083 161.613C513.811 39.8478 703.863 -72.7 703.863 -299.251L-705 -299.251C-694.901 -211.606 -720.828 -67.8489 -284.958 161.613C-201.409 205.597 0.119702 344.503 0.11969 548.253C13.8915 449.127 42.5482 298.649 292.083 161.613Z" fill="url(#paint13_linear_687_561)"/>
</g>
</g>
<defs>
<linearGradient id="paint0_linear_687_561" x1="1574.64" y1="1097.3" x2="1574.64" y2="363.089" gradientUnits="userSpaceOnUse">
<stop stop-color="#FF1704"/>
<stop offset="0.65" stop-color="#FF9901"/>
</linearGradient>
<linearGradient id="paint1_linear_687_561" x1="1574.64" y1="595.364" x2="1574.64" y2="1107.8" gradientUnits="userSpaceOnUse">
<stop stop-color="#FF9901"/>
<stop offset="1" stop-color="#FF1704"/>
</linearGradient>
<linearGradient id="paint2_linear_687_561" x1="1576.33" y1="717.932" x2="1568.94" y2="1108.1" gradientUnits="userSpaceOnUse">
<stop stop-color="#CAE3C8"/>
<stop offset="1" stop-color="#72B1E8"/>
</linearGradient>
<linearGradient id="paint3_linear_687_561" x1="1572.11" y1="717.937" x2="1572.11" y2="1097.3" gradientUnits="userSpaceOnUse">
<stop stop-color="#CAE3C8"/>
<stop offset="0.423836" stop-color="#A5CED6"/>
<stop offset="1" stop-color="#72B1E8"/>
</linearGradient>
<linearGradient id="paint4_linear_687_561" x1="1572.52" y1="751.633" x2="1572.52" y2="1129.89" gradientUnits="userSpaceOnUse">
<stop stop-color="#D7EFD6"/>
<stop offset="1" stop-color="#72D2E8"/>
</linearGradient>
<linearGradient id="paint5_linear_687_561" x1="1574.09" y1="585.535" x2="1574.09" y2="1092.04" gradientUnits="userSpaceOnUse">
<stop stop-color="#CAE3C8"/>
<stop offset="1" stop-color="#72B1E8"/>
</linearGradient>
<linearGradient id="paint6_linear_687_561" x1="1575.24" y1="2365.02" x2="1575.24" y2="325.217" gradientUnits="userSpaceOnUse">
<stop offset="0.65402" stop-color="#626C3C"/>
<stop offset="0.766561" stop-color="#266B65"/>
<stop offset="0.938798" stop-color="#ABA9FC"/>
</linearGradient>
<linearGradient id="paint7_linear_687_561" x1="-0.36479" y1="-269.3" x2="-0.364862" y2="464.911" gradientUnits="userSpaceOnUse">
<stop stop-color="#FF1704"/>
<stop offset="0.65" stop-color="#FF9901"/>
</linearGradient>
<linearGradient id="paint8_linear_687_561" x1="-0.364051" y1="232.636" x2="-0.364008" y2="-279.804" gradientUnits="userSpaceOnUse">
<stop stop-color="#FF9901"/>
<stop offset="1" stop-color="#FF1704"/>
</linearGradient>
<linearGradient id="paint9_linear_687_561" x1="-2.05463" y1="110.068" x2="5.33178" y2="-280.102" gradientUnits="userSpaceOnUse">
<stop stop-color="#CAE3C8"/>
<stop offset="1" stop-color="#72B1E8"/>
</linearGradient>
<linearGradient id="paint10_linear_687_561" x1="2.19354" y1="110.054" x2="2.19355" y2="-269.313" gradientUnits="userSpaceOnUse">
<stop stop-color="#CAE3C8"/>
<stop offset="0.423836" stop-color="#A5CED6"/>
<stop offset="1" stop-color="#72B1E8"/>
</linearGradient>
<linearGradient id="paint11_linear_687_561" x1="1.78898" y1="76.3586" x2="1.78901" y2="-301.894" gradientUnits="userSpaceOnUse">
<stop stop-color="#D7EFD6"/>
<stop offset="1" stop-color="#72D2E8"/>
</linearGradient>
<linearGradient id="paint12_linear_687_561" x1="0.219731" y1="242.456" x2="0.219768" y2="-264.051" gradientUnits="userSpaceOnUse">
<stop stop-color="#CAE3C8"/>
<stop offset="1" stop-color="#72B1E8"/>
</linearGradient>
<linearGradient id="paint13_linear_687_561" x1="-0.965824" y1="-1537.02" x2="-0.966" y2="502.782" gradientUnits="userSpaceOnUse">
<stop offset="0.65402" stop-color="#626C3C"/>
<stop offset="0.766561" stop-color="#266B65"/>
<stop offset="0.938798" stop-color="#ABA9FC"/>
</linearGradient>
<clipPath id="clip0_687_561">
<rect width="1575" height="861" fill="white"/>
</clipPath>
</defs>
</svg>
