<svg width="325" height="2861" viewBox="0 0 325 2861" fill="none" xmlns="http://www.w3.org/2000/svg">
<g clip-path="url(#clip0_674_727)" filter="url(#filter0_d_674_727)">
<path d="M160.178 1658.03V1598.51V1564.72C160.178 1540.79 179.576 1521.4 203.505 1521.4V1521.4H233.893" stroke="url(#paint0_linear_674_727)" stroke-width="1.86511"/>
<path d="M220.998 448.164H228.458C263.481 448.164 291.872 476.555 291.872 511.578L291.872 745.106C291.872 778.671 264.662 805.881 231.096 805.881V805.881" stroke="#C86604" stroke-width="1.86511"/>
<path d="M101.121 805.765H93.6607C58.6383 805.765 30.247 834.156 30.247 869.179V1102.71C30.247 1136.27 57.4573 1163.48 91.0229 1163.48V1163.48" stroke="#C86604" stroke-width="1.86511"/>
<path d="M223.238 1163.72H230.699C265.721 1163.72 294.112 1192.11 294.112 1227.13V1460.66C294.112 1494.22 266.902 1521.44 233.336 1521.44V1521.44" stroke="#C86604" stroke-width="1.86511"/>
<path d="M94.1543 448.072C100.96 448.072 105.234 454.94 108.263 459.635C110.803 454.868 113.262 448.072 122.918 448.072H225.482" stroke="url(#paint1_linear_674_727)" stroke-width="1.86511"/>
<path d="M231.586 805.812C224.78 805.812 220.506 812.68 217.477 817.375C214.937 812.608 212.478 805.812 202.823 805.812H100.259" stroke="url(#paint2_linear_674_727)" stroke-width="1.86511"/>
<path d="M90.6934 1163.68C97.4995 1163.68 101.773 1170.55 104.802 1175.24C107.342 1170.48 109.801 1163.68 119.457 1163.68H224.485" stroke="url(#paint3_linear_674_727)" stroke-width="1.86511"/>
<rect x="271.361" y="1322.06" width="41.0223" height="41.0223" fill="black"/>
<path d="M292.402 1330.9V1337.96C293.884 1337.04 295.311 1335.83 296.628 1334.38C295.931 1332.11 294.531 1329.83 292.402 1330.9Z" fill="#FFFFF7"/>
<path d="M294.188 1330.06C295.718 1330.52 296.635 1332.28 297.153 1333.8C298.11 1332.67 299 1331.43 299.796 1330.08C298.032 1329.15 296.061 1329.36 294.188 1330.06Z" fill="#FFFFF7"/>
<path d="M286.098 1347.73L280.984 1350.68C281.028 1353.23 281.704 1355.86 283.829 1357.3C284.695 1355.82 285.695 1354.43 286.812 1353.15C286.383 1351.61 286.142 1349.75 286.098 1347.73Z" fill="#FFFFF7"/>
<path d="M280.998 1349.89L286.083 1346.95C286.091 1344.8 286.323 1342.57 286.752 1340.44C285.785 1340.41 284.885 1340.18 284.069 1339.76C282.188 1343.12 281.113 1346.67 280.998 1349.89Z" fill="#FFFFF7"/>
<path d="M296.846 1335.16C295.46 1336.63 293.957 1337.86 292.402 1338.77V1343.3L297.444 1340.39C297.426 1338.46 297.221 1336.66 296.846 1335.16Z" fill="#FFFFF7"/>
<path d="M298.109 1340.01L303.222 1337.06C303.174 1333.99 302.166 1331.66 300.371 1330.43C299.479 1331.94 298.472 1333.32 297.383 1334.55C297.825 1336.12 298.065 1337.95 298.109 1340.01Z" fill="#FFFFF7"/>
<path d="M298.014 1343.49C298.803 1342.84 299.693 1342.3 300.674 1342.02C301.29 1341.85 301.978 1341.79 302.599 1341.93C302.969 1340.52 303.168 1339.16 303.213 1337.85L298.123 1340.79C298.122 1341.68 298.072 1342.6 297.99 1343.51C297.998 1343.51 298.006 1343.5 298.014 1343.49Z" fill="#FFFFF7"/>
<path d="M289.458 1333C289.393 1333.06 289.328 1333.11 289.263 1333.17C287.343 1334.88 285.717 1336.94 284.398 1339.18C285.149 1339.56 285.988 1339.76 286.889 1339.77C287.501 1337.05 288.398 1334.71 289.458 1333Z" fill="#FFFFF7"/>
<path d="M292.402 1348.61C293.22 1348.18 294.03 1347.85 294.82 1347.64C295.493 1346.28 296.438 1345 297.253 1344.19C297.366 1343.18 297.418 1342.18 297.433 1341.19L292.402 1344.09V1348.61Z" fill="#FFFFF7"/>
<path d="M287.6 1339.74C288.883 1339.62 290.274 1339.17 291.721 1338.37V1331.35C290.041 1332.7 288.503 1335.84 287.6 1339.74Z" fill="#FFFFF7"/>
<path d="M301.646 1343.93C302.416 1343.5 303.158 1343.27 303.724 1343.21L303.111 1342.86C302.553 1342.53 301.859 1342.48 301.224 1342.59C298.78 1343.04 296.509 1345.67 295.364 1348.07L295.364 1348.07C294.588 1349.69 294.279 1351.2 294.279 1352.38C294.289 1353.62 294.647 1354.98 295.707 1355.6L296.369 1355.98C296.121 1355.42 295.94 1354.65 295.936 1353.71C295.929 1350.11 298.508 1345.69 301.646 1343.93Z" fill="#FFFFF7"/>
<path d="M297.586 1328.78L295.637 1327.64C293.576 1326.45 290.805 1326.73 287.836 1328.44C281.79 1331.94 276.571 1340.57 276.586 1347.92C276.6 1351.28 277.729 1353.79 279.762 1354.98L281.72 1356.11C280.667 1354.5 280.278 1352.4 280.269 1350.46C280.247 1343.09 285.446 1334.09 291.859 1330.39C293.887 1329.22 295.844 1328.67 297.586 1328.78Z" fill="#FFFFF7"/>
<path d="M294.443 1348.46C293.775 1348.69 293.091 1349 292.402 1349.39V1356.43C292.953 1356.01 293.495 1355.4 294.015 1354.61C293.775 1354.05 293.6 1353.25 293.597 1352.38C293.594 1351.3 293.853 1349.89 294.443 1348.46Z" fill="#FFFFF7"/>
<path d="M301.904 1344.56C298.997 1346.24 296.611 1350.34 296.621 1353.71C296.625 1354.96 296.987 1356.32 298.058 1356.93C298.985 1357.47 300.243 1357.33 301.599 1356.55C304.519 1354.86 306.887 1350.76 306.877 1347.4C306.867 1344.09 304.595 1343.01 301.904 1344.56ZM302.084 1353.14V1354.07C302.084 1354.26 301.932 1354.41 301.744 1354.41C301.555 1354.41 301.403 1354.26 301.403 1354.07V1353.41C301.364 1353.42 301.324 1353.43 301.286 1353.43C301.128 1353.43 300.978 1353.39 300.846 1353.32C300.545 1353.14 300.371 1352.79 300.37 1352.36C300.369 1352.17 300.522 1352.02 300.71 1352.01H300.711C300.898 1352.01 301.051 1352.17 301.052 1352.35C301.052 1352.54 301.102 1352.68 301.186 1352.73C301.271 1352.78 301.421 1352.75 301.587 1352.65C302.058 1352.38 302.455 1351.69 302.454 1351.15C302.453 1350.97 302.402 1350.83 302.318 1350.78C302.234 1350.73 302.086 1350.76 301.921 1350.85C301.537 1351.07 301.143 1351.1 300.84 1350.92C300.538 1350.75 300.365 1350.4 300.363 1349.96C300.361 1349.24 300.807 1348.42 301.403 1347.98V1347.05C301.403 1346.86 301.555 1346.71 301.744 1346.71C301.932 1346.71 302.084 1346.86 302.084 1347.05V1347.69C302.29 1347.66 302.485 1347.69 302.652 1347.79C302.953 1347.96 303.127 1348.32 303.128 1348.76C303.128 1348.94 302.976 1349.1 302.788 1349.1H302.787C302.599 1349.1 302.447 1348.94 302.446 1348.76C302.446 1348.57 302.396 1348.43 302.311 1348.38C302.227 1348.33 302.078 1348.36 301.914 1348.45C301.441 1348.73 301.044 1349.42 301.045 1349.96C301.046 1350.14 301.096 1350.29 301.18 1350.33C301.265 1350.38 301.415 1350.36 301.581 1350.26C301.963 1350.04 302.354 1350.01 302.658 1350.19C302.96 1350.36 303.134 1350.71 303.135 1351.15C303.136 1351.87 302.685 1352.7 302.084 1353.14Z" fill="#FFFFF7"/>
<path d="M287.046 1353.93C286.063 1355.09 285.169 1356.34 284.395 1357.67L284.395 1357.67C284.463 1357.68 286.506 1358.96 289.973 1357.67C289.988 1357.67 290.003 1357.66 290.018 1357.66C288.467 1357.19 287.565 1355.46 287.046 1353.93Z" fill="#FFFFF7"/>
<path d="M286.775 1346.55L291.718 1343.7V1339.15C290.226 1339.93 288.784 1340.36 287.446 1340.44C287.035 1342.44 286.809 1344.53 286.775 1346.55Z" fill="#FFFFF7"/>
<path d="M287.572 1353.33C288.232 1355.5 289.582 1357.79 291.65 1356.9C291.658 1356.89 291.665 1356.89 291.672 1356.89C291.685 1356.88 291.703 1356.87 291.721 1356.86V1349.81C290.271 1350.72 288.877 1351.9 287.572 1353.33Z" fill="#FFFFF7"/>
<path d="M287.369 1352.56C288.738 1351.11 290.196 1349.91 291.719 1349V1344.48L286.768 1347.34C286.785 1349.28 286.996 1351.05 287.369 1352.56Z" fill="#FFFFF7"/>
<rect x="271.355" y="606.512" width="41.0223" height="41.0223" fill="black"/>
<path d="M289.154 618.374L286.014 616.549C286.366 616.411 279.777 618.978 279.629 619.036C279.527 618.976 282.634 620.782 282.771 620.861L289.154 618.374Z" fill="#FFFFF7"/>
<path d="M289.159 619.283L283.208 621.602C283.142 621.182 284.182 627.786 284.195 627.871L285.125 626.263C285.242 626.062 285.498 625.993 285.699 626.107C285.816 626.171 287.471 627.073 287.658 627.175C287.663 627.158 287.672 627.141 287.677 627.124C288.238 625.436 289.152 623.92 290.309 622.665C290.33 622.642 290.348 622.615 290.37 622.592L288.39 621.462C288.195 621.351 288.121 621.107 288.221 620.907L289.159 619.283Z" fill="#FFFFF7"/>
<path d="M295.073 620.128C295.421 620.139 295.691 620.209 295.775 620.223L298.754 615.051C298.84 615.101 295.492 613.162 295.407 613.113L290.482 621.643L291.014 621.955C292.103 620.971 293.62 620.076 295.073 620.128Z" fill="#FFFFF7"/>
<path d="M286.939 627.783L282.031 636.284C281.826 636.168 285.129 638.047 285.389 638.195C285.339 638.28 288.207 633.315 288.256 633.229C287.692 632.493 287.397 632.076 287.233 630.952C287.095 630.007 287.192 628.976 287.411 628.051L286.939 627.783Z" fill="#FFFFF7"/>
<path d="M304.414 608.419L301.132 606.512L294.479 611.6C294.302 611.497 297.682 613.448 297.774 613.501C297.34 613.833 304.328 608.485 304.414 608.419Z" fill="#FFFFF7"/>
<path d="M302.339 628.428L303.444 626.517L300.38 624.737C300.403 624.957 300.415 625.181 300.415 625.409C300.415 625.969 300.337 626.649 300.221 627.194L302.339 628.428Z" fill="#FFFFF7"/>
<path d="M304.627 609.323C305.029 609.016 298.655 613.895 298.569 613.961L299.545 614.531C299.739 614.644 299.817 614.901 299.698 615.106L296.565 620.547C296.48 620.498 298.608 621.688 298.937 621.924L302.091 616.467C302.207 616.266 302.463 616.197 302.665 616.31L303.655 616.871L304.627 609.323Z" fill="#FFFFF7"/>
<path d="M294.656 622.125C295.259 621.776 295.852 621.547 296.416 621.438L296.104 621.261C295.85 621.113 295.364 620.995 295.076 620.982C293.753 620.918 292.313 621.868 291.366 622.783L291.349 622.8C289.367 624.714 287.652 628.145 288.074 630.874C288.172 631.525 288.382 632.01 288.62 632.345C289.021 632.915 289.457 633.057 289.652 633.186C289.456 632.641 289.353 632.01 289.35 631.308C289.343 627.937 291.724 623.818 294.656 622.125Z" fill="#FFFFF7"/>
<path d="M294.805 634.765L297.708 636.46C297.642 636.574 298.685 634.764 298.812 634.543L296.739 633.365C296.374 633.712 295.534 634.392 294.805 634.765Z" fill="#FFFFF7"/>
<path d="M283.408 628.303C283.479 628.752 282.364 621.677 282.35 621.593L279.217 619.772L280.277 626.483L283.408 628.303Z" fill="#FFFFF7"/>
<path d="M297.572 631.09C298.71 629.463 299.569 627.372 299.569 625.409C299.569 622.581 297.661 621.362 295.079 622.855C292.38 624.414 290.189 628.205 290.195 631.305C290.215 635.708 294.484 635.504 297.572 631.09ZM295.3 630.823V631.64C295.3 631.874 295.111 632.063 294.878 632.063C294.644 632.063 294.456 631.874 294.456 631.64V631.149L294.451 631.15C294.285 631.15 294.127 631.11 293.988 631.03C293.673 630.849 293.492 630.489 293.491 630.042C293.49 629.809 293.679 629.619 293.912 629.619H293.913C294.146 629.619 294.335 629.807 294.336 630.04C294.336 630.198 294.38 630.281 294.409 630.298C294.439 630.317 294.538 630.312 294.68 630.229C295.084 629.995 295.438 629.383 295.437 628.919C295.436 628.758 295.392 628.674 295.362 628.657C295.334 628.639 295.237 628.643 295.096 628.725C294.704 628.951 294.298 628.977 293.982 628.794C293.667 628.613 293.486 628.252 293.485 627.804C293.483 627.122 293.896 626.336 294.456 625.901V625.084C294.456 624.85 294.644 624.661 294.878 624.661C295.111 624.661 295.3 624.85 295.3 625.084V625.572C295.471 625.57 295.634 625.604 295.777 625.687C296.092 625.868 296.273 626.229 296.274 626.678C296.275 626.911 296.086 627.1 295.853 627.101H295.852C295.62 627.101 295.431 626.913 295.43 626.68C295.43 626.519 295.385 626.435 295.356 626.418C295.327 626.402 295.231 626.404 295.089 626.487C294.683 626.721 294.328 627.335 294.329 627.801C294.33 627.962 294.374 628.046 294.403 628.062C294.435 628.081 294.531 628.076 294.673 627.994C295.063 627.767 295.468 627.743 295.783 627.925C296.098 628.106 296.28 628.467 296.281 628.916C296.283 629.601 295.865 630.391 295.3 630.823Z" fill="#FFFFF7"/>
<path d="M298.825 636.208L304.77 633.888L303.783 627.608L302.852 629.219C302.741 629.411 302.486 629.493 302.278 629.374C302.424 629.457 300.139 628.158 299.989 628.072C299.981 628.099 299.969 628.124 299.961 628.15C299.575 629.397 298.98 630.562 298.249 631.599C298.047 631.885 297.731 632.308 297.357 632.725L299.599 634.021C299.794 634.134 299.873 634.39 299.753 634.597L298.825 636.208Z" fill="#FFFFF7"/>
<path d="M280.25 636.249L279.189 644.516L282.472 646.424C282.535 645.934 283.521 638.235 283.532 638.156L280.25 636.249Z" fill="#FFFFF7"/>
<path d="M283.359 646.162L289.424 641.514C287.448 640.368 287.392 640.345 284.327 638.612C284.391 638.111 283.371 646.075 283.359 646.162Z" fill="#FFFFF7"/>
<path d="M286.119 638.618L288.508 640.001L291.33 635.092C291.123 635 290.529 634.657 288.931 633.749L286.119 638.618Z" fill="#FFFFF7"/>
<rect x="9.61523" y="964.114" width="41.0223" height="41.0223" fill="black"/>
<path d="M33.4514 967.097L35.3873 968.214L33.4675 969.33L31.5316 968.212L33.4514 967.097ZM35.7541 968.857C35.7533 969.186 35.7483 971.322 35.7483 971.246C35.4117 971.442 33.7263 972.42 33.8319 972.359C33.8322 972.23 33.8375 969.86 33.8373 969.97L35.7541 968.857ZM31.1625 968.853L33.0976 969.97C33.0972 970.191 33.0922 972.513 33.0925 972.366L31.1574 971.246C31.1574 971.23 31.1574 971.222 31.1574 971.219C31.1575 971.156 31.1584 970.766 31.1625 968.853ZM30.6014 971.783C30.6755 971.826 33.4468 973.426 33.2709 973.325C33.2717 973.325 33.2726 973.325 33.2733 973.325L33.276 973.327C33.3865 973.39 33.5258 973.395 33.6457 973.327C33.646 973.327 33.6461 973.326 33.6464 973.326L35.7902 972.08C37.7462 972.777 40.4887 974.315 40.4887 976.362C40.4887 976.363 40.4887 976.363 40.4887 976.364C40.4947 977.148 40.0147 977.996 39.1406 978.776C38.8593 978.56 38.5514 978.347 38.1969 978.141C36.1934 976.978 33.5118 976.3 30.6164 976.207C30.6176 975.715 30.6216 973.981 30.6216 974.091C30.6216 974.017 30.5721 973.85 30.4368 973.771L27.763 972.228C27.6481 972.162 27.5059 972.162 27.3925 972.228L24.736 973.772C24.6621 973.815 24.5519 973.979 24.5519 974.091L24.5449 976.956C23.5088 977.272 22.5757 977.666 21.7785 978.135C21.4349 978.338 21.1468 978.537 20.8824 978.739C20.0143 977.963 19.5343 977.112 19.5343 976.317C19.5343 975.173 20.4881 973.966 22.1525 973.006C24.5533 971.608 27.6421 971.09 30.4173 971.154L30.4166 971.462C30.4166 971.594 30.4866 971.717 30.6014 971.783ZM27.5949 975.208L25.659 974.091L27.5788 972.975L29.5147 974.093C29.3774 974.173 27.5031 975.262 27.5949 975.208ZM29.8808 974.735L29.875 977.126L27.9588 978.239L27.9646 975.848L29.8808 974.735ZM27.225 975.849L27.2192 978.243L25.2841 977.123L25.2899 974.731L27.225 975.849ZM27.4026 979.205C27.5169 979.27 27.6568 979.271 27.7716 979.205C27.7714 979.205 27.7718 979.205 27.7716 979.205C27.9822 979.082 30.2801 977.747 30.4296 977.66C30.4304 977.66 30.4306 977.659 30.4315 977.658L30.4332 977.657C30.5473 977.591 30.6173 977.469 30.6173 977.337V976.94C33.3835 977.032 35.931 977.681 37.8264 978.781C38.0894 978.933 38.3297 979.089 38.5476 979.246C38.5305 979.258 38.5161 979.27 38.4987 979.282C38.3047 979.418 38.0977 979.553 37.8712 979.687C35.809 980.88 33.0333 981.537 30.0555 981.537C27.1992 981.537 23.8862 980.907 21.5407 979.257C21.5187 979.241 21.4987 979.225 21.4769 979.21C22.4472 978.515 23.5904 978.016 24.7368 977.665L27.4026 979.205ZM37.0632 984.216C37.0059 984.292 33.8483 988.474 33.9056 988.398C33.4124 989.05 33.138 989.859 33.1323 990.677L33.1193 992.658C33.1193 993.014 32.8557 993.366 32.3799 993.645C31.2246 994.31 29.3443 994.31 28.1919 993.647C27.7001 993.358 27.4294 993 27.4294 992.64L27.4416 990.837C27.4474 989.957 27.1463 989.096 26.5947 988.411L21.4983 982.093C23.9702 983.37 27.188 983.981 30.0548 983.981C32.9107 983.981 36.1715 983.386 38.7196 982.023L37.0632 984.216ZM38.7348 981.166C33.2631 984.353 24.1868 983.742 19.9819 980.224C18.4779 978.992 17.7146 977.495 17.8345 976.009C17.9695 974.331 19.1956 972.74 21.2874 971.527C23.9143 969.998 27.3593 969.373 30.4215 969.438L30.4191 970.417C30.2683 970.414 30.1174 970.409 29.9667 970.409C26.8553 970.409 23.9483 971.105 21.7813 972.366C19.8837 973.461 18.7949 974.902 18.7949 976.317C18.7949 977.419 19.4296 978.52 20.6333 979.504C23.1071 981.496 26.8257 982.277 30.0555 982.277C33.1611 982.277 36.0682 981.584 38.2438 980.325C39.7171 979.457 41.2406 978.07 41.2281 976.36C41.227 974.1 38.7255 972.447 36.4622 971.557C36.4717 971.524 36.4884 971.494 36.4884 971.459C36.4885 971.385 36.4894 970.445 36.4893 970.52C39.0536 971.442 41.9562 973.322 42.1885 976.034C42.3769 978.235 40.6324 980.071 38.7348 981.166Z" fill="#FFFFF7"/>
<path d="M30.0365 1002.16C30.2408 1002.16 30.4062 1002 30.4062 1001.79V1001.02C30.9298 1000.63 31.3187 999.895 31.3174 999.261C31.3159 998.404 30.6012 997.992 29.8581 998.424C29.6177 998.562 29.5065 998.524 29.505 998.225C29.5036 997.786 29.8379 997.206 30.2213 996.985C30.4551 996.85 30.5708 996.881 30.5723 997.184C30.573 997.388 30.7383 997.553 30.942 997.553C31.1463 997.553 31.3124 997.387 31.3117 997.182C31.3106 996.609 30.9748 996.155 30.4062 996.176V995.701C30.4062 995.497 30.2408 995.332 30.0365 995.332C29.8321 995.332 29.6668 995.497 29.6668 995.701V996.472C29.1471 996.871 28.7631 997.598 28.7656 998.228C28.7672 999.083 29.4787 999.496 30.2278 999.064C30.4633 998.929 30.5766 998.962 30.578 999.264C30.5795 999.702 30.2452 1000.28 29.8639 1000.5C29.6216 1000.64 29.5122 1000.6 29.5108 1000.3C29.5101 1000.1 29.3447 999.936 29.1411 999.936C28.9368 999.937 28.7707 1000.1 28.7714 1000.31C28.7724 1000.87 29.1008 1001.32 29.6668 1001.31V1001.79C29.6668 1002 29.8321 1002.16 30.0365 1002.16Z" fill="#FFFFF7"/>
<path d="M104.689 90.3643V90.3643C65.5468 90.3643 33.8154 122.096 33.8154 161.238V387.306C33.8154 420.871 61.0257 448.082 94.5913 448.082V448.082" stroke="#C86604" stroke-width="1.86511"/>
<path d="M99.0391 90.3643L232.565 90.3639C267.587 90.3638 295.978 61.9726 295.978 26.9502L295.978 10.5372" stroke="#C86604" stroke-width="1.86511"/>
<rect x="10.9219" y="248.711" width="41.0223" height="41.0223" fill="black"/>
<path d="M20.1082 274.247C20.2692 274.155 20.4285 274.078 20.5853 274.017L19.7296 273.519L23.0653 263.169L23.5647 263.457C23.5426 263.298 23.5308 263.131 23.5308 262.955C23.5308 261.129 24.7739 258.974 26.3602 258.049C26.5246 257.957 26.6864 257.879 26.8466 257.818L25.1154 256.813C24.6891 256.568 24.1176 256.746 23.6892 256.997C22.3792 257.748 21.2818 259.645 21.2895 261.143C21.2895 261.785 21.4827 262.252 21.8343 262.457L22.2973 262.725L18.9623 273.073L18.8541 273.01C18.4229 272.763 17.8567 272.947 17.4246 273.196C16.1247 273.946 15.0273 275.844 15.0273 277.343C15.035 277.983 15.2316 278.451 15.5815 278.655L17.3127 279.664C17.2532 279.257 17.2677 278.901 17.3268 278.506C17.565 276.843 18.6971 275.065 20.1082 274.247Z" fill="#FFFFF7"/>
<path d="M36.9317 255.72C36.9317 257.012 37.7349 257.525 38.9154 256.842C39.2054 256.674 39.4797 256.447 39.7371 256.19L41.934 259.145C40.91 260.055 40.131 261.591 40.1382 262.847C40.1382 263.49 40.3314 263.957 40.683 264.162L42.4134 265.167C42.3905 265.007 42.3786 264.837 42.3786 264.66C42.3786 262.835 43.6217 260.68 45.2089 259.754C45.3724 259.662 45.5351 259.585 45.6953 259.523L43.9641 258.518C43.5745 258.286 43.0576 258.427 42.6423 258.643L40.3127 255.51C40.9181 254.658 41.3152 253.614 41.3126 252.692C41.3091 251.374 40.4815 250.901 39.3323 251.567C37.9976 252.338 36.9243 254.271 36.9317 255.72Z" fill="#FFFFF7"/>
<path d="M26.4319 283.044C26.5938 282.951 26.7539 282.873 26.9124 282.811L25.1863 281.808C24.7638 281.558 24.1859 281.74 23.7568 281.986C23.4866 282.142 23.2294 282.357 22.985 282.597L20.8641 279.705C21.8239 278.787 22.5221 277.353 22.5187 276.127C22.5152 274.792 21.692 274.414 20.6552 274.946C19.3232 275.64 18.1366 277.6 18.1446 279.152C18.1446 280.485 18.9626 280.953 20.1215 280.283C20.1419 280.271 20.1609 280.254 20.1812 280.242L22.4015 283.27C21.7737 284.138 21.3548 285.215 21.3595 286.139C21.3595 286.776 21.5527 287.238 21.9044 287.444L23.6347 288.449C23.6127 288.291 23.6008 288.125 23.6008 287.951C23.6008 286.117 24.9408 283.905 26.4319 283.044Z" fill="#FFFFF7"/>
<path d="M45.6422 260.505C44.3143 261.272 43.241 263.237 43.245 264.655C43.2464 265.211 43.3938 265.602 43.639 265.836L37.8755 274.664L37.7175 274.573C37.2914 274.319 36.7201 274.497 36.2914 274.748C34.9847 275.505 33.8823 277.408 33.8823 278.905C33.8868 279.326 33.9825 279.663 34.1441 279.908L28.8033 284.433C28.6169 283.492 27.868 283.217 26.8651 283.795C25.5367 284.562 24.4646 286.481 24.4688 287.944C24.4724 289.315 25.3303 289.715 26.4482 289.069C27.5876 288.412 28.5362 286.95 28.783 285.587L34.8486 280.448L36.166 281.216C36.1448 281.064 36.1344 280.903 36.1335 280.735C36.1334 280.727 36.1312 280.721 36.1312 280.713C36.1254 278.919 37.3416 276.722 39.0115 275.786C39.1574 275.704 39.3031 275.631 39.4462 275.574L38.6278 275.1L44.5345 266.052C44.7482 266.011 44.9778 265.929 45.2253 265.787C46.5548 265.019 47.6318 263.153 47.6276 261.627C47.624 260.267 46.7649 259.86 45.6422 260.505Z" fill="#FFFFF7"/>
<path d="M24.3984 262.953C24.402 264.31 25.2531 264.726 26.3788 264.078C27.7029 263.313 28.7765 261.461 28.7798 259.941L35.666 255.971L36.0974 256.222C35.8233 254.317 37.1534 251.823 38.8928 250.815C39.0539 250.722 39.214 250.644 39.3716 250.582L37.6472 249.578C37.226 249.328 36.6464 249.51 36.2177 249.756C34.9144 250.51 33.8128 252.414 33.8128 253.91C33.8196 254.542 34.0196 255.018 34.3611 255.211L34.8015 255.468L28.6017 259.042C28.2838 258.411 27.5781 258.351 26.7957 258.803C25.4437 259.583 24.3944 261.546 24.3984 262.953Z" fill="#FFFFF7"/>
<path d="M39.4001 276.561C38.1467 277.279 36.9941 279.206 37.002 280.714C37.002 282.046 37.8328 282.5 38.9866 281.833C40.2898 281.08 41.3872 279.179 41.3829 277.682C41.3793 276.316 40.5098 275.917 39.4001 276.561Z" fill="#FFFFF7"/>
<path d="M32.7076 264.135L32.7085 264.134C33.1342 263.889 33.6619 263.678 34.0109 263.59L33.6652 263.397C32.8472 262.923 31.8277 263.219 31.0053 263.695C28.73 265.009 26.8828 268.204 26.8887 270.817C26.8938 271.983 27.2683 272.842 27.9428 273.235L28.3631 273.47C28.2363 273.059 28.1589 272.436 28.1572 272.01C28.1514 269.169 30.215 265.574 32.7076 264.135Z" fill="#FFFFF7"/>
<path d="M32.7372 274.123C35.0116 272.81 36.8563 269.612 36.8487 266.995C36.8414 264.488 35.1583 263.729 33.1533 264.882C33.1498 264.884 33.1465 264.885 33.1431 264.887C30.8725 266.198 29.0197 269.388 29.0274 272.009C29.0344 274.439 30.6362 275.333 32.7372 274.123ZM32.4999 267.397V266.717C32.4999 266.477 32.694 266.283 32.9338 266.283C33.1736 266.283 33.3676 266.477 33.3676 266.717V267.064C33.4976 267.073 33.6233 267.101 33.7354 267.165C34.0269 267.333 34.1947 267.664 34.1964 268.074C34.1972 268.313 34.0032 268.508 33.7642 268.509H33.7625C33.5236 268.509 33.3295 268.315 33.3287 268.076C33.3287 267.972 33.3041 267.922 33.2956 267.912C33.2982 267.918 33.2422 267.923 33.1507 267.976C32.8253 268.163 32.5414 268.655 32.5423 269.029C32.5423 269.132 32.566 269.183 32.5745 269.192C32.5719 269.186 32.6296 269.181 32.7219 269.128C33.0761 268.923 33.449 268.901 33.7413 269.07C34.0328 269.237 34.2006 269.568 34.2023 269.977C34.203 270.577 33.8516 271.228 33.3676 271.616V272.294C33.3676 272.534 33.1736 272.728 32.9338 272.728C32.694 272.728 32.4999 272.534 32.4999 272.294V271.944C32.3723 271.934 32.2498 271.903 32.1398 271.84C31.8483 271.672 31.6814 271.343 31.6797 270.935C31.6788 270.695 31.8813 270.522 32.1135 270.5C32.3525 270.5 32.5465 270.693 32.5474 270.933C32.5474 271.034 32.5711 271.084 32.5796 271.093C32.577 271.087 32.6347 271.083 32.7279 271.029C33.0516 270.842 33.3354 270.351 33.3346 269.979C33.3346 269.876 33.31 269.826 33.3015 269.817C33.3032 269.822 33.2473 269.826 33.1558 269.879C32.7982 270.085 32.4262 270.106 32.1347 269.939C31.8432 269.771 31.6754 269.44 31.6746 269.031C31.6724 268.435 32.0196 267.787 32.4999 267.397Z" fill="#FFFFF7"/>
<path d="M-63.2187 2158.11C-233.095 2340.22 -378.703 2508.54 -378.703 2847.35L700.697 2847.35C692.96 2716.28 712.824 2501.28 378.882 2158.11C314.87 2092.33 160.469 1884.59 160.469 1579.87C149.918 1728.12 127.963 1953.17 -63.2187 2158.11Z" fill="url(#paint4_linear_674_727)" fill-opacity="0.88"/>
<path d="M-16.8627 2182.53C-151.685 2358.18 -267.247 2520.54 -267.247 2847.35L589.42 2847.35C583.279 2720.92 599.044 2513.54 334.011 2182.53C283.208 2119.08 160.668 1918.7 160.668 1624.78C152.293 1767.77 134.869 1984.85 -16.8627 2182.53Z" fill="url(#paint5_linear_674_727)" fill-opacity="0.7"/>
<path d="M31.9431 2179.96C-66.3088 2355.86 -150.525 2518.43 -150.525 2845.69L473.772 2845.69C469.296 2719.08 480.785 2511.42 287.642 2179.96C250.62 2116.43 161.318 1915.78 161.318 1621.45C155.216 1764.64 142.517 1982.01 31.9431 2179.96Z" fill="url(#paint6_linear_674_727)" fill-opacity="0.56"/>
<path d="M77.2195 2179.96C15.7068 2355.86 -37.0184 2518.43 -37.0184 2845.69L353.836 2845.69C351.034 2719.08 358.227 2511.42 237.306 2179.96C214.127 2116.43 158.218 1915.78 158.218 1621.45C154.397 1764.64 146.447 1982.01 77.2195 2179.96Z" fill="url(#paint7_linear_674_727)" fill-opacity="0.8"/>
<path d="M113.88 2179.96C79.332 2355.86 49.7192 2518.43 49.7192 2845.69L269.24 2845.69C267.667 2719.09 271.706 2511.43 203.792 2179.96C190.773 2116.43 159.372 1915.78 159.372 1621.46C157.227 1764.65 152.761 1982.01 113.88 2179.96Z" fill="url(#paint8_linear_674_727)"/>
<path d="M137.064 2179.96C118.863 2355.86 103.262 2518.43 103.262 2845.69L218.912 2845.69C218.083 2719.08 220.211 2511.42 184.432 2179.96C177.574 2116.43 161.031 1915.78 161.031 1621.45C159.9 1764.64 157.548 1982.01 137.064 2179.96Z" fill="url(#paint9_linear_674_727)" fill-opacity="0.57"/>
<g style="mix-blend-mode:soft-light">
<path d="M-62.9964 2156.98C-232.823 2337.91 -378.389 2505.15 -378.389 2841.78L700.697 2841.78C692.962 2711.55 712.82 2497.94 378.976 2156.98C314.983 2091.62 160.627 1885.22 160.627 1582.47C150.078 1729.76 128.129 1953.36 -62.9964 2156.98Z" fill="url(#paint10_linear_674_727)"/>
</g>
</g>
<defs>
<filter id="filter0_d_674_727" x="0.319573" y="-1.48602" width="324.361" height="2862.36" filterUnits="userSpaceOnUse" color-interpolation-filters="sRGB">
<feFlood flood-opacity="0" result="BackgroundImageFix"/>
<feColorMatrix in="SourceAlpha" type="matrix" values="0 0 0 0 0 0 0 0 0 0 0 0 0 0 0 0 0 0 127 0" result="hardAlpha"/>
<feOffset dy="4.19441"/>
<feGaussianBlur stdDeviation="7.34021"/>
<feComposite in2="hardAlpha" operator="out"/>
<feColorMatrix type="matrix" values="0 0 0 0 0 0 0 0 0 0 0 0 0 0 0 0 0 0 0.25 0"/>
<feBlend mode="normal" in2="BackgroundImageFix" result="effect1_dropShadow_674_727"/>
<feBlend mode="normal" in="SourceGraphic" in2="effect1_dropShadow_674_727" result="shape"/>
</filter>
<linearGradient id="paint0_linear_674_727" x1="348.663" y1="1535.57" x2="253.754" y2="1535.59" gradientUnits="userSpaceOnUse">
<stop stop-color="#CAE3C8"/>
<stop offset="1" stop-color="#C86604"/>
</linearGradient>
<linearGradient id="paint1_linear_674_727" x1="-203.891" y1="453.798" x2="-109.037" y2="453.853" gradientUnits="userSpaceOnUse">
<stop stop-color="#CAE3C8"/>
<stop offset="1" stop-color="#C86604"/>
</linearGradient>
<linearGradient id="paint2_linear_674_727" x1="529.631" y1="811.538" x2="434.777" y2="811.594" gradientUnits="userSpaceOnUse">
<stop stop-color="#CAE3C8"/>
<stop offset="1" stop-color="#C86604"/>
</linearGradient>
<linearGradient id="paint3_linear_674_727" x1="-207.352" y1="1169.41" x2="-112.498" y2="1169.46" gradientUnits="userSpaceOnUse">
<stop stop-color="#CAE3C8"/>
<stop offset="1" stop-color="#C86604"/>
</linearGradient>
<linearGradient id="paint4_linear_674_727" x1="160.997" y1="2797.28" x2="160.997" y2="1706.31" gradientUnits="userSpaceOnUse">
<stop stop-color="#FF1704"/>
<stop offset="0.65" stop-color="#FF9901"/>
</linearGradient>
<linearGradient id="paint5_linear_674_727" x1="161.086" y1="2051.45" x2="161.086" y2="2812.89" gradientUnits="userSpaceOnUse">
<stop stop-color="#FF9901"/>
<stop offset="1" stop-color="#FF1704"/>
</linearGradient>
<linearGradient id="paint6_linear_674_727" x1="162.383" y1="2233.57" x2="141.111" y2="2812.76" gradientUnits="userSpaceOnUse">
<stop stop-color="#CAE3C8"/>
<stop offset="1" stop-color="#72B1E8"/>
</linearGradient>
<linearGradient id="paint7_linear_674_727" x1="159.169" y1="2233.57" x2="159.169" y2="2797.28" gradientUnits="userSpaceOnUse">
<stop stop-color="#CAE3C8"/>
<stop offset="0.423836" stop-color="#A5CED6"/>
<stop offset="1" stop-color="#72B1E8"/>
</linearGradient>
<linearGradient id="paint8_linear_674_727" x1="159.48" y1="2283.64" x2="159.48" y2="2845.69" gradientUnits="userSpaceOnUse">
<stop stop-color="#D7EFD6"/>
<stop offset="1" stop-color="#72D2E8"/>
</linearGradient>
<linearGradient id="paint9_linear_674_727" x1="160.683" y1="2036.83" x2="160.683" y2="2789.46" gradientUnits="userSpaceOnUse">
<stop stop-color="#CAE3C8"/>
<stop offset="1" stop-color="#72B1E8"/>
</linearGradient>
<linearGradient id="paint10_linear_674_727" x1="161.458" y1="4680.99" x2="161.458" y2="1650.03" gradientUnits="userSpaceOnUse">
<stop offset="0.65402" stop-color="#626C3C"/>
<stop offset="0.766561" stop-color="#266B65"/>
<stop offset="0.938798" stop-color="#ABA9FC"/>
</linearGradient>
<clipPath id="clip0_674_727">
<rect width="295" height="2833" fill="white" transform="translate(15 9)"/>
</clipPath>
</defs>
</svg>
