<svg width="1575" height="832" viewBox="0 0 1575 832" fill="none" xmlns="http://www.w3.org/2000/svg">
<g clip-path="url(#clip0_697_803)">
<rect width="1575" height="832" fill="black"/>
<path d="M-919.755 368.96L200.229 368.96C226.113 368.96 232.705 350.74 239.514 337.96C247.634 350.548 259.093 368.96 277.339 368.96L397.524 368.96L959 368.96" stroke="url(#paint0_linear_697_803)" stroke-width="5"/>
<path d="M1199.63 578.345C1309.11 736.984 1410.31 872.961 1614 872.961V-135.039C1535.2 -127.813 1405.95 -146.363 1199.63 165.489C1160.09 225.266 1035.2 369.454 852.001 369.454C941.127 379.307 1076.42 399.81 1199.63 578.345Z" fill="url(#paint1_linear_697_803)" fill-opacity="0.88"/>
<path d="M1214.31 535.139C1319.92 661.043 1417.52 768.961 1614 768.961V-31.0391C1537.99 -25.3043 1413.32 -40.0265 1214.31 207.475C1176.17 254.917 1055.7 369.352 878.999 369.352C964.967 377.172 1095.47 393.444 1214.31 535.139Z" fill="url(#paint2_linear_697_803)" fill-opacity="0.7"/>
<path d="M1212.77 489.563C1318.52 581.316 1416.26 659.961 1613 659.961V76.9609C1536.89 81.1401 1412.04 70.4113 1212.77 250.778C1174.57 285.352 1053.94 368.746 877.001 368.746C963.085 374.445 1093.77 386.303 1212.77 489.563Z" fill="url(#paint3_linear_697_803)" fill-opacity="0.56"/>
<path d="M1212.77 447.28C1318.52 504.723 1416.26 553.961 1613 553.961V188.961C1536.89 191.577 1412.04 184.86 1212.77 297.783C1174.57 319.429 1053.94 371.639 877.001 371.639C963.085 375.207 1093.77 382.632 1212.77 447.28Z" fill="url(#paint4_linear_697_803)" fill-opacity="0.8"/>
<path d="M1212.77 413.044C1318.52 445.307 1416.26 472.961 1613 472.961V267.961C1536.89 269.43 1412.04 265.658 1212.77 329.08C1174.57 341.237 1053.94 370.561 877.001 370.561C963.085 372.565 1093.77 376.735 1212.77 413.044Z" fill="url(#paint5_linear_697_803)"/>
<path d="M1212.77 391.395C1318.52 408.392 1416.26 422.961 1613 422.961V314.961C1536.89 315.735 1412.04 313.748 1212.77 347.16C1174.57 353.565 1053.94 369.014 877.001 369.014C963.085 370.069 1093.77 372.266 1212.77 391.395Z" fill="url(#paint6_linear_697_803)" fill-opacity="0.57"/>
<g style="mix-blend-mode:soft-light">
<path d="M1198.95 578.137C1307.73 736.73 1408.27 872.667 1610.65 872.667V-135.039C1532.36 -127.815 1403.94 -146.36 1198.95 165.401C1159.66 225.161 1035.58 369.307 853.562 369.307C942.113 379.157 1076.54 399.654 1198.95 578.137Z" fill="url(#paint7_linear_697_803)"/>
</g>
<path d="M108.592 638.84V581.653H133.294C143.46 581.653 151.562 587.451 151.562 598.015C151.562 608.539 143.46 614.377 133.294 614.377H115.86V638.84H108.592ZM132.023 587.451H115.86V608.618H132.023C139.37 608.618 144.294 604.846 144.294 598.015C144.294 591.184 139.37 587.451 132.023 587.451ZM163.979 610.048H157.506V608.857C158.34 601.788 164.813 597.419 174.542 597.419C184.272 597.419 190.666 601.788 190.666 611.875V630.619C190.666 632.684 191.659 633.717 193.724 633.717H195.987V638.84H192.572C187.687 638.84 185.344 636.338 185.106 632.565H184.312C182.207 636.457 178.275 639.714 170.214 639.714C161.517 639.714 155.441 634.829 155.441 627.561C155.441 619.619 161.636 616.323 169.499 615.568L178.871 614.694C182.207 614.377 183.994 613.463 183.994 610.366C183.994 605.203 180.539 602.622 174.423 602.622C168.307 602.622 164.217 605.124 163.979 610.048ZM162.351 627.323C162.351 631.652 165.964 634.511 171.326 634.511C177.759 634.511 184.034 630.738 184.034 620.969V618.269H183.24C182.008 619.023 180.817 619.46 177.243 619.817L171.087 620.413C165.528 621.009 162.351 622.915 162.351 627.323ZM197.016 599.564V598.372H203.846L216.515 631.93H217.309L229.977 598.372H236.808V599.564L217.984 646.663C215.442 653.176 212.186 654.725 205.395 654.725H201.583V649.245H204.68C208.731 649.245 209.922 648.609 211.352 645.194L213.298 640.508L197.016 599.564ZM244.273 638.84V598.372H250.985V603.495H251.779C253.447 600.676 256.425 597.459 263.772 597.459C270.762 597.459 274.137 601.113 275.329 604.607H276.123C277.99 600.993 281.643 597.459 289.149 597.459C296.535 597.459 302.651 601.549 302.651 611.001V638.84H295.701V611.478C295.701 606.236 292.842 602.939 287.362 602.939C281.246 602.939 276.917 606.871 276.917 614.774V638.84H269.968V611.478C269.968 606.236 267.227 602.939 261.747 602.939C255.512 602.939 251.183 606.871 251.183 614.774V638.84H244.273ZM311.503 618.586C311.503 604.846 319.009 597.419 330.883 597.419C342.837 597.419 349.31 604.925 349.31 616.839V620.095H318.294C318.453 628.991 323.1 634.511 330.883 634.511C338.27 634.511 341.566 630.063 342.202 626.171H348.436V627.363C347.563 632.327 343.035 639.793 330.923 639.793C319.049 639.793 311.503 632.367 311.503 618.586ZM318.413 615.012H342.599C342.519 607.626 338.627 602.701 330.844 602.701C323.219 602.701 318.969 607.705 318.413 615.012ZM358.525 638.84V598.372H365.316V604.091H366.111C367.461 601.51 370.876 597.459 379.216 597.459C388.111 597.459 393.989 602.344 393.989 611.637V638.84H387V612.113C387 605.759 383.227 602.939 377.548 602.939C371.075 602.939 365.515 607.07 365.515 615.489V638.84H358.525ZM400.429 603.495V598.372H408.49V587.213H415.44V598.372H424.773V603.495H415.44V629.904C415.44 632.168 416.473 633.439 419.014 633.439H424.534V638.84H417.743C411.826 638.84 408.49 635.901 408.49 630.024V603.495H400.429ZM455.439 591.026V582.686H462.627V591.026H455.439ZM455.558 638.84V598.372H462.548V638.84H455.558ZM474.174 638.84V598.372H480.965V604.091H481.759C483.109 601.51 486.524 597.459 494.864 597.459C503.76 597.459 509.637 602.344 509.637 611.637V638.84H502.648V612.113C502.648 605.759 498.875 602.939 493.196 602.939C486.723 602.939 481.163 607.07 481.163 615.489V638.84H474.174ZM523.94 603.495H516.077V598.372H523.94V591.462C523.94 584.87 527.554 581.653 534.107 581.653H540.977V586.737H535.338C532.121 586.737 530.85 588.246 530.85 591.423V598.372H540.222V603.495H530.85V638.84H523.94V603.495ZM547.86 638.84V598.372H554.651V604.091H555.445C557.152 600.636 560.488 597.181 568.788 598.015V604.051C560.409 603.178 554.849 606.116 554.849 616.283V638.84H547.86ZM581.74 610.048H575.267V608.857C576.1 601.788 582.574 597.419 592.303 597.419C602.033 597.419 608.427 601.788 608.427 611.875V630.619C608.427 632.684 609.42 633.717 611.485 633.717H613.748V638.84H610.333C605.448 638.84 603.105 636.338 602.867 632.565H602.073C599.968 636.457 596.036 639.714 587.975 639.714C579.278 639.714 573.201 634.829 573.201 627.561C573.201 619.619 579.397 616.323 587.26 615.568L596.632 614.694C599.968 614.377 601.755 613.463 601.755 610.366C601.755 605.203 598.3 602.622 592.184 602.622C586.068 602.622 581.978 605.124 581.74 610.048ZM580.111 627.323C580.111 631.652 583.725 634.511 589.087 634.511C595.52 634.511 601.795 630.738 601.795 620.969V618.269H601C599.769 619.023 598.578 619.46 595.004 619.817L588.848 620.413C583.289 621.009 580.111 622.915 580.111 627.323ZM619.293 609.095C619.293 601.748 625.488 597.459 635.496 597.459C645.543 597.459 651.739 601.986 652.533 608.857V610.048H646.06C645.742 604.846 641.731 602.582 635.615 602.582C629.619 602.582 625.965 604.885 625.965 608.817C625.965 612.788 629.38 614.178 633.63 614.893L640.142 615.965C648.164 617.315 653.843 619.976 653.843 627.482C653.843 635.067 647.886 639.793 637.005 639.793C626.084 639.793 619.452 635.067 618.459 627.681V626.489H625.012C625.488 631.85 630.294 634.67 637.005 634.67C643.717 634.67 647.172 631.85 647.172 627.919C647.172 623.828 643.637 622.438 638.514 621.604L632.001 620.532C624.615 619.261 619.293 616.124 619.293 609.095ZM658.019 603.495V598.372H666.081V587.213H673.031V598.372H682.363V603.495H673.031V629.904C673.031 632.168 674.063 633.439 676.605 633.439H682.125V638.84H675.334C669.417 638.84 666.081 635.901 666.081 630.024V603.495H658.019ZM691.198 638.84V598.372H697.989V604.091H698.783C700.491 600.636 703.827 597.181 712.127 598.015V604.051C703.748 603.178 698.188 606.116 698.188 616.283V638.84H691.198ZM754.803 598.372V638.84H748.012V633.121H747.218C745.828 635.703 742.452 639.753 734.271 639.753C725.455 639.753 719.578 634.869 719.578 625.576V598.372H726.567V625.099C726.567 631.453 730.34 634.273 735.939 634.273C742.293 634.273 747.813 630.143 747.813 621.724V598.372H754.803ZM764.013 618.626C764.013 605.481 771.598 597.419 783.87 597.419C795.386 597.419 800.43 604.409 801.184 610.405V611.597H794.592C794.116 607.626 791.216 602.86 783.909 602.86C776.046 602.86 771.082 608.579 771.082 618.626C771.082 628.634 776.006 634.352 783.909 634.352C791.336 634.352 794.116 629.825 794.83 625.218H801.383V626.41C800.589 632.724 795.545 639.793 783.87 639.793C771.519 639.793 764.013 631.731 764.013 618.626ZM805.857 603.495V598.372H813.919V587.213H820.868V598.372H830.201V603.495H820.868V629.904C820.868 632.168 821.901 633.439 824.442 633.439H829.963V638.84H823.172C817.254 638.84 813.919 635.901 813.919 630.024V603.495H805.857ZM873.864 598.372V638.84H867.073V633.121H866.279C864.889 635.703 861.513 639.753 853.332 639.753C844.516 639.753 838.639 634.869 838.639 625.576V598.372H845.628V625.099C845.628 631.453 849.401 634.273 855 634.273C861.354 634.273 866.874 630.143 866.874 621.724V598.372H873.864ZM885.497 638.84V598.372H892.288V604.091H893.082C894.79 600.636 898.125 597.181 906.425 598.015V604.051C898.046 603.178 892.486 606.116 892.486 616.283V638.84H885.497ZM910.687 618.586C910.687 604.846 918.193 597.419 930.067 597.419C942.021 597.419 948.494 604.925 948.494 616.839V620.095H917.478C917.637 628.991 922.283 634.511 930.067 634.511C937.454 634.511 940.75 630.063 941.385 626.171H947.62V627.363C946.746 632.327 942.219 639.793 930.107 639.793C918.233 639.793 910.687 632.367 910.687 618.586ZM917.597 615.012H941.782C941.703 607.626 937.811 602.701 930.027 602.701C922.402 602.701 918.153 607.705 917.597 615.012ZM107.838 734.84V677.653H114.827V699.853H115.622C117.409 696.874 121.3 693.459 128.965 693.459C139.489 693.459 147.511 700.607 147.511 714.626C147.511 728.605 139.489 735.753 128.965 735.753C121.3 735.753 117.289 732.338 115.423 729.081H114.629V734.84H107.838ZM114.549 714.626C114.549 724.673 119.791 730.233 127.535 730.233C135.24 730.233 140.482 724.673 140.482 714.626C140.482 704.539 135.24 698.979 127.535 698.979C119.791 698.979 114.549 704.539 114.549 714.626ZM191.609 694.372V734.84H184.818V729.121H184.024C182.634 731.703 179.258 735.753 171.077 735.753C162.261 735.753 156.384 730.869 156.384 721.576V694.372H163.373V721.099C163.373 727.453 167.146 730.273 172.745 730.273C179.099 730.273 184.62 726.143 184.62 717.724V694.372H191.609ZM203.123 687.026V678.686H210.311V687.026H203.123ZM203.242 734.84V694.372H210.231V734.84H203.242ZM221.857 734.84V677.653H228.847V734.84H221.857ZM236.303 699.495V694.372H244.364V683.213H251.314V694.372H260.647V699.495H251.314V725.904C251.314 728.168 252.347 729.439 254.888 729.439H260.408V734.84H253.618C247.7 734.84 244.364 731.901 244.364 726.024V699.495H236.303ZM294.428 699.495H286.564V694.372H294.428V687.462C294.428 680.87 298.041 677.653 304.594 677.653H311.464V682.737H305.825C302.608 682.737 301.338 684.246 301.338 687.423V694.372H310.71V699.495H301.338V734.84H294.428V699.495ZM314.141 714.626C314.141 700.965 322.321 693.419 334.394 693.419C346.467 693.419 354.648 700.965 354.648 714.626C354.648 728.248 346.467 735.793 334.394 735.793C322.321 735.793 314.141 728.248 314.141 714.626ZM321.249 714.626C321.249 724.872 326.531 730.352 334.394 730.352C342.257 730.352 347.539 724.872 347.539 714.626C347.539 704.34 342.257 698.86 334.394 698.86C326.531 698.86 321.249 704.34 321.249 714.626ZM363.877 734.84V694.372H370.668V700.091H371.462C373.17 696.636 376.506 693.181 384.806 694.015V700.051C376.427 699.178 370.867 702.116 370.867 712.283V734.84H363.877ZM410.243 713.991C410.243 700.329 418.304 693.459 428.749 693.459C436.175 693.459 440.067 696.835 441.894 699.773H442.688V694.372H449.479V733.251C449.479 744.967 443.324 751.678 430.457 751.678C417.868 751.678 411.99 745.284 411.315 738.454V737.262H417.788C418.185 742.028 421.72 746.357 430.337 746.357C438.995 746.357 442.49 741.909 442.49 733.529V728.446H441.695C439.749 731.345 435.977 734.482 428.749 734.482C418.304 734.482 410.243 727.652 410.243 713.991ZM417.312 713.991C417.312 723.681 422.435 729.002 430.02 729.002C437.605 729.002 442.728 723.681 442.728 713.991C442.728 704.301 437.605 698.979 430.02 698.979C422.435 698.979 417.312 704.301 417.312 713.991ZM461.143 734.84V677.653H468.132V734.84H461.143ZM477.336 714.626C477.336 700.965 485.517 693.419 497.589 693.419C509.662 693.419 517.843 700.965 517.843 714.626C517.843 728.248 509.662 735.793 497.589 735.793C485.517 735.793 477.336 728.248 477.336 714.626ZM484.444 714.626C484.444 724.872 489.726 730.352 497.589 730.352C505.453 730.352 510.734 724.872 510.734 714.626C510.734 704.34 505.453 698.86 497.589 698.86C489.726 698.86 484.444 704.34 484.444 714.626ZM527.072 734.84V677.653H534.062V699.853H534.856C536.643 696.874 540.535 693.459 548.2 693.459C558.724 693.459 566.746 700.607 566.746 714.626C566.746 728.605 558.724 735.753 548.2 735.753C540.535 735.753 536.524 732.338 534.658 729.081H533.863V734.84H527.072ZM533.784 714.626C533.784 724.673 539.026 730.233 546.77 730.233C554.474 730.233 559.716 724.673 559.716 714.626C559.716 704.539 554.474 698.979 546.77 698.979C539.026 698.979 533.784 704.539 533.784 714.626ZM581.972 706.048H575.499V704.857C576.333 697.788 582.806 693.419 592.536 693.419C602.266 693.419 608.659 697.788 608.659 707.875V726.619C608.659 728.684 609.652 729.717 611.717 729.717H613.981V734.84H610.566C605.681 734.84 603.338 732.338 603.1 728.565H602.305C600.201 732.457 596.269 735.714 588.207 735.714C579.51 735.714 573.434 730.829 573.434 723.561C573.434 715.619 579.629 712.323 587.492 711.568L596.865 710.694C600.201 710.377 601.988 709.463 601.988 706.366C601.988 701.203 598.533 698.622 592.417 698.622C586.301 698.622 582.211 701.124 581.972 706.048ZM580.344 723.323C580.344 727.652 583.958 730.511 589.319 730.511C595.753 730.511 602.027 726.738 602.027 716.969V714.269H601.233C600.002 715.023 598.811 715.46 595.237 715.817L589.081 716.413C583.521 717.009 580.344 718.915 580.344 723.323ZM621.546 734.84V677.653H628.535V734.84H621.546ZM662.112 734.84V677.653H669.101V699.853H669.896C671.683 696.874 675.574 693.459 683.239 693.459C693.763 693.459 701.785 700.607 701.785 714.626C701.785 728.605 693.763 735.753 683.239 735.753C675.574 735.753 671.563 732.338 669.697 729.081H668.903V734.84H662.112ZM668.823 714.626C668.823 724.673 674.065 730.233 681.809 730.233C689.514 730.233 694.756 724.673 694.756 714.626C694.756 704.539 689.514 698.979 681.809 698.979C674.065 698.979 668.823 704.539 668.823 714.626ZM745.883 694.372V734.84H739.092V729.121H738.298C736.908 731.703 733.532 735.753 725.351 735.753C716.535 735.753 710.658 730.869 710.658 721.576V694.372H717.647V721.099C717.647 727.453 721.42 730.273 727.019 730.273C733.373 730.273 738.894 726.143 738.894 717.724V694.372H745.883ZM755.729 705.095C755.729 697.748 761.924 693.459 771.932 693.459C781.979 693.459 788.174 697.986 788.968 704.857V706.048H782.495C782.177 700.846 778.166 698.582 772.051 698.582C766.054 698.582 762.4 700.885 762.4 704.817C762.4 708.788 765.816 710.178 770.065 710.893L776.578 711.965C784.6 713.315 790.279 715.976 790.279 723.482C790.279 731.067 784.322 735.793 773.441 735.793C762.52 735.793 755.888 731.067 754.895 723.681V722.489H761.447C761.924 727.85 766.729 730.67 773.441 730.67C780.152 730.67 783.607 727.85 783.607 723.919C783.607 719.828 780.073 718.438 774.95 717.604L768.437 716.532C761.05 715.261 755.729 712.124 755.729 705.095ZM798.971 687.026V678.686H806.159V687.026H798.971ZM799.09 734.84V694.372H806.08V734.84H799.09ZM817.706 734.84V694.372H824.496V700.091H825.291C826.641 697.51 830.056 693.459 838.396 693.459C847.292 693.459 853.169 698.344 853.169 707.637V734.84H846.18V708.113C846.18 701.759 842.407 698.939 836.728 698.939C830.255 698.939 824.695 703.07 824.695 711.489V734.84H817.706ZM862.054 714.586C862.054 700.846 869.56 693.419 881.434 693.419C893.388 693.419 899.861 700.925 899.861 712.839V716.095H868.845C869.004 724.991 873.651 730.511 881.434 730.511C888.821 730.511 892.117 726.063 892.752 722.171H898.987V723.363C898.114 728.327 893.586 735.793 881.474 735.793C869.6 735.793 862.054 728.367 862.054 714.586ZM868.964 711.012H893.15C893.07 703.626 889.178 698.701 881.395 698.701C873.77 698.701 869.52 703.705 868.964 711.012ZM907.289 705.095C907.289 697.748 913.484 693.459 923.492 693.459C933.539 693.459 939.735 697.986 940.529 704.857V706.048H934.056C933.738 700.846 929.727 698.582 923.611 698.582C917.615 698.582 913.961 700.885 913.961 704.817C913.961 708.788 917.376 710.178 921.626 710.893L928.138 711.965C936.16 713.315 941.839 715.976 941.839 723.482C941.839 731.067 935.882 735.793 925.001 735.793C914.08 735.793 907.448 731.067 906.455 723.681V722.489H913.008C913.484 727.85 918.29 730.67 925.001 730.67C931.713 730.67 935.168 727.85 935.168 723.919C935.168 719.828 931.633 718.438 926.51 717.604L919.997 716.532C912.611 715.261 907.289 712.124 907.289 705.095ZM948.864 705.095C948.864 697.748 955.059 693.459 965.066 693.459C975.114 693.459 981.309 697.986 982.103 704.857V706.048H975.63C975.312 700.846 971.301 698.582 965.186 698.582C959.189 698.582 955.535 700.885 955.535 704.817C955.535 708.788 958.951 710.178 963.2 710.893L969.713 711.965C977.735 713.315 983.414 715.976 983.414 723.482C983.414 731.067 977.457 735.793 966.576 735.793C955.654 735.793 949.022 731.067 948.03 723.681V722.489H954.582C955.059 727.85 959.864 730.67 966.576 730.67C973.287 730.67 976.742 727.85 976.742 723.919C976.742 719.828 973.208 718.438 968.085 717.604L961.572 716.532C954.185 715.261 948.864 712.124 948.864 705.095Z" fill="white"/>
<path d="M240.69 154.453V149.235L246.188 148.596C248.425 148.064 249.809 146.679 249.809 143.378V91.4106L243.1 87.6834V83.7432L265.357 76.8213H267.274V143.378C267.274 146.679 268.765 148.064 270.894 148.596L283.524 149.235V154.453H240.69Z" fill="#FFFFF7"/>
<path d="M224.334 94.8194C218.477 94.8194 214.005 90.3468 214.005 84.4898C214.005 78.7393 218.477 74.1602 224.334 74.1602C230.191 74.1602 234.77 78.7393 234.77 84.4898C234.77 90.3468 230.191 94.8194 224.334 94.8194ZM206.318 154.454V149.236L212.514 148.597C214.75 148.065 216.135 146.681 216.135 143.379V113.242L209.532 109.515V105.681L231.682 98.9726H233.599V143.379C233.599 146.681 235.09 148.065 237.326 148.597L241.726 149.236V154.454H206.318Z" fill="#FFFFF7"/>
<path d="M164.861 155.52C156.555 155.52 150.059 150.089 150.059 140.931C150.059 132.625 155.384 128.259 172.209 123.679L181.474 121.124V113.669C181.474 108.132 179.557 105.789 175.084 105.789C170.186 105.789 168.375 108.558 168.375 114.734V119.313H151.976C151.23 107.706 160.815 99.293 175.936 99.293C191.058 99.293 198.832 105.256 198.832 117.29V139.227C198.832 145.83 199.121 149.284 202.954 148.965H208.603L209.058 154.509L203.98 154.585C199.443 154.682 196.276 155.307 192.868 155.307C186.798 155.307 183.497 152.538 182.113 145.404C177.96 151.58 171.677 155.52 164.861 155.52ZM174.126 144.765C176.362 144.765 178.705 143.913 181.474 142.102V126.874L174.019 129.323C169.121 130.921 167.31 134.222 167.31 138.056C167.31 142.209 169.44 144.765 174.126 144.765Z" fill="#FFFFF7"/>
<path d="M102 154.454V149.236L104.982 148.597C107.218 148.065 108.602 146.681 108.602 143.379V113.242L102 109.515V105.575L123.192 98.9727H125.108V116.011C129.155 103.871 134.16 98.3337 146.3 99.3986V114.627H139.059C131.391 114.627 128.09 116.65 126.067 120.697V143.379C126.067 146.787 128.41 148.384 131.924 148.81L135.757 149.236V154.454H102Z" fill="#FFFFF7"/>
</g>
<defs>
<linearGradient id="paint0_linear_697_803" x1="966.34" y1="353.609" x2="712.055" y2="353.46" gradientUnits="userSpaceOnUse">
<stop stop-color="#CAE3C8"/>
<stop offset="1" stop-color="#C86604"/>
</linearGradient>
<linearGradient id="paint1_linear_697_803" x1="1583.9" y1="368.961" x2="928.013" y2="368.961" gradientUnits="userSpaceOnUse">
<stop stop-color="#FF1704"/>
<stop offset="0.65" stop-color="#FF9901"/>
</linearGradient>
<linearGradient id="paint2_linear_697_803" x1="1135.51" y1="368.961" x2="1593.28" y2="368.961" gradientUnits="userSpaceOnUse">
<stop stop-color="#FF9901"/>
<stop offset="1" stop-color="#FF1704"/>
</linearGradient>
<linearGradient id="paint3_linear_697_803" x1="1245" y1="367.752" x2="1593.48" y2="375.991" gradientUnits="userSpaceOnUse">
<stop stop-color="#CAE3C8"/>
<stop offset="1" stop-color="#72B1E8"/>
</linearGradient>
<linearGradient id="paint4_linear_697_803" x1="1245" y1="370.751" x2="1583.9" y2="370.751" gradientUnits="userSpaceOnUse">
<stop stop-color="#CAE3C8"/>
<stop offset="0.423836" stop-color="#A5CED6"/>
<stop offset="1" stop-color="#72B1E8"/>
</linearGradient>
<linearGradient id="paint5_linear_697_803" x1="1275.1" y1="370.461" x2="1613" y2="370.461" gradientUnits="userSpaceOnUse">
<stop stop-color="#D7EFD6"/>
<stop offset="1" stop-color="#72D2E8"/>
</linearGradient>
<linearGradient id="paint6_linear_697_803" x1="1126.72" y1="369.339" x2="1579.2" y2="369.339" gradientUnits="userSpaceOnUse">
<stop stop-color="#CAE3C8"/>
<stop offset="1" stop-color="#72B1E8"/>
</linearGradient>
<linearGradient id="paint7_linear_697_803" x1="2716.37" y1="368.53" x2="894.182" y2="368.53" gradientUnits="userSpaceOnUse">
<stop offset="0.65402" stop-color="#626C3C"/>
<stop offset="0.766561" stop-color="#266B65"/>
<stop offset="0.938798" stop-color="#ABA9FC"/>
</linearGradient>
<clipPath id="clip0_697_803">
<rect width="1575" height="832" fill="white"/>
</clipPath>
</defs>
</svg>
