<svg width="119" height="54" viewBox="0 0 119 54" fill="none" xmlns="http://www.w3.org/2000/svg">
<path d="M90.6787 52.6753V49.2801L94.2566 48.8644C95.7116 48.518 96.6124 47.6172 96.6124 45.4693V11.6566L92.2472 9.23147V6.6678L106.728 2.16406H107.976V45.4693C107.976 47.6172 108.946 48.518 110.331 48.8644L118.549 49.2801V52.6753H90.6787Z" fill="#FFFFF7"/>
<path d="M80.0373 13.8746C76.2265 13.8746 73.3164 10.9644 73.3164 7.15358C73.3164 3.41201 76.2265 0.432617 80.0373 0.432617C83.8482 0.432617 86.8276 3.41201 86.8276 7.15358C86.8276 10.9644 83.8482 13.8746 80.0373 13.8746ZM68.3149 52.676V49.2809L72.3463 48.8652C73.8014 48.5187 74.7021 47.618 74.7021 45.47V25.8614L70.4063 23.4363V20.942L84.8182 16.5768H86.0654V45.47C86.0654 47.618 87.0355 48.5187 88.4905 48.8652L91.3534 49.2809V52.676H68.3149Z" fill="#FFFFF7"/>
<path d="M41.341 53.3694C35.9365 53.3694 31.71 49.8357 31.71 43.8769C31.71 38.4724 35.1744 35.6316 46.1219 32.6522L52.15 30.9893V26.1391C52.15 22.5361 50.9028 21.0117 47.9927 21.0117C44.8055 21.0117 43.6276 22.8132 43.6276 26.832V29.8114H32.9571C32.4721 22.2589 38.7081 16.7852 48.547 16.7852C58.386 16.7852 63.444 20.6653 63.444 28.4949V42.7683C63.444 47.0642 63.632 49.3119 66.1264 49.104H69.8014L70.0974 52.7114L66.794 52.7607C63.8417 52.8241 61.7811 53.2308 59.5639 53.2308C55.6144 53.2308 53.4665 51.4293 52.5657 46.787C49.8635 50.8057 45.7755 53.3694 41.341 53.3694ZM47.3691 46.3713C48.8242 46.3713 50.3485 45.817 52.15 44.6391V34.7308L47.2998 36.3245C44.1126 37.3638 42.9347 39.5117 42.9347 42.0061C42.9347 44.7084 44.3204 46.3713 47.3691 46.3713Z" fill="#FFFFF7"/>
<path d="M0.44043 52.6764V49.2812L2.3805 48.8655C3.83556 48.5191 4.73631 47.6183 4.73631 45.4704V25.8618L0.44043 23.4367V20.873L14.2288 16.5771H15.476V27.6633C18.109 19.7644 21.3655 16.1614 29.2644 16.8543V26.7625H24.5528C19.564 26.7625 17.4161 28.079 16.0996 30.712V45.4704C16.0996 47.6876 17.6239 48.7269 19.9105 49.0041L22.4048 49.2812V52.6764H0.44043Z" fill="#FFFFF7"/>
</svg>
